<svg width="301" height="260" viewBox="0 0 301 260" fill="none" xmlns="http://www.w3.org/2000/svg">
<g clip-path="url(#clip0)">
<path d="M117.669 260C168.294 260 209.334 254.847 209.334 248.491C209.334 242.134 168.294 236.981 117.669 236.981C67.0431 236.981 26.0029 242.134 26.0029 248.491C26.0029 254.847 67.0431 260 117.669 260Z" fill="#3F3D56"/>
<path d="M272.731 150.083L237.294 166.864L268.657 143.399C263.56 135.438 257.833 127.898 251.533 120.852L97.8491 159.073L236.669 106.087C230.325 100.487 223.589 95.3489 216.51 90.7129L-17.6676 128.455C-42.5314 159.565 -56.0854 198.209 -56.1045 238.044H296.397C296.383 207.15 288.219 176.808 272.731 150.083Z" fill="#F2F2F2"/>
<path d="M197.345 79.8178C173.302 68.0843 146.897 62.0043 120.146 62.0422C65.7026 62.0422 17.0271 86.7436 -15.3032 125.555C40.0594 113.417 136.45 92.4063 197.345 79.8178Z" fill="#F2F2F2"/>
<path opacity="0.4" d="M232.013 96.7763C234.93 96.7763 237.294 94.4108 237.294 91.4927C237.294 88.5746 234.93 86.209 232.013 86.209C229.097 86.209 226.733 88.5746 226.733 91.4927C226.733 94.4108 229.097 96.7763 232.013 96.7763Z" fill="#DB4949"/>
<path opacity="0.4" d="M222.24 97.7225C224.286 97.7225 225.945 96.063 225.945 94.016C225.945 91.969 224.286 90.3096 222.24 90.3096C220.195 90.3096 218.536 91.969 218.536 94.016C218.536 96.063 220.195 97.7225 222.24 97.7225Z" fill="#DB4949"/>
<path d="M301 237.69H-60V238.399H301V237.69Z" fill="#2F2E41"/>
<path d="M260.101 237.691L231.985 195.903C231.985 195.903 274.565 210.777 269.732 237.691H260.101Z" fill="#3F3D56"/>
<path d="M261.205 237.691L289.321 195.903C289.321 195.903 246.741 210.777 251.574 237.691H261.205Z" fill="#979797"/>
<path d="M13.6157 47.0179C13.6157 44.7171 10.337 42.852 6.29257 42.852C6.21252 42.852 6.13332 42.854 6.05389 42.8555C4.83384 39.1133 -0.933636 36.2793 -7.86543 36.2793C-13.7631 36.2793 -18.8178 38.3309 -20.9464 41.2478C-22.519 40.8313 -24.1396 40.6237 -25.7664 40.6303C-31.9678 40.6303 -36.9951 43.4901 -36.9951 47.0179C-36.9951 50.2224 -32.8465 52.8753 -27.438 53.3346C-23.5078 54.0536 -17.3688 54.5164 -10.4692 54.5164C1.24443 54.5164 9.81542 52.2806 10.0304 50.6001C12.1767 49.8737 13.6157 48.5417 13.6157 47.0179Z" fill="#F2F2F2"/>
<path d="M190.577 48.7884C190.577 46.4877 187.298 44.6225 183.253 44.6225C183.173 44.6225 183.094 44.6245 183.015 44.626C181.795 40.8838 176.027 38.0498 169.096 38.0498C163.198 38.0498 158.143 40.1014 156.015 43.0183C154.442 42.6018 152.821 42.3942 151.195 42.4008C144.993 42.4008 139.966 45.2606 139.966 48.7884C139.966 51.993 144.114 54.6459 149.523 55.1052C153.453 55.8242 159.592 56.2869 166.492 56.2869C178.205 56.2869 186.776 54.0511 186.991 52.3706C189.138 51.6442 190.577 50.3122 190.577 48.7884Z" fill="#F2F2F2"/>
<path d="M289.321 18.8488C289.321 14.8105 283.566 11.5368 276.467 11.5368C276.326 11.5368 276.187 11.5403 276.048 11.5428C273.906 4.97433 263.783 0 251.616 0C241.264 0 232.392 3.60106 228.656 8.72089C225.895 7.98994 223.051 7.62552 220.196 7.63703C209.31 7.63703 200.486 12.6567 200.486 18.8488C200.486 24.4736 207.768 29.1302 217.261 29.9363C224.16 31.1984 234.935 32.0105 247.046 32.0105C267.606 32.0105 282.65 28.0862 283.028 25.1364C286.795 23.8616 289.321 21.5235 289.321 18.8488Z" fill="#F2F2F2"/>
<path d="M141.795 102.665C134.475 90.2876 119.991 89.7108 119.991 89.7108C119.991 89.7108 105.878 87.9049 96.8244 106.755C88.3857 124.325 76.7393 141.289 94.9494 145.403L98.2387 135.159L100.276 146.165C102.868 146.352 105.47 146.396 108.067 146.298C127.569 145.668 146.141 146.483 145.543 139.481C144.748 130.172 148.839 114.574 141.795 102.665Z" fill="#2F2E41"/>
<path d="M93.9093 211.056C93.6943 212.417 93.3822 213.761 92.9755 215.078C92.5174 216.367 91.8101 217.559 91.3912 218.861C90.0561 223.012 91.907 227.64 94.8632 230.844C97.4268 233.611 100.736 235.577 104.391 236.505C107.058 237.176 109.831 237.273 112.579 237.366C120.19 237.624 127.996 237.855 135.207 235.408C137.485 234.616 139.686 233.616 141.781 232.42C142.442 232.105 143.025 231.645 143.487 231.076C144.037 230.292 144.107 229.276 144.102 228.319C144.086 225.091 143.432 221.879 143.587 218.655C143.673 216.869 144.007 215.084 143.843 213.304C143.615 211.282 142.769 209.379 141.419 207.857C140.069 206.335 138.282 205.267 136.303 204.8C134.257 204.361 132.136 204.6 130.053 204.801C124.647 205.321 119.218 205.563 113.787 205.529C108.238 205.493 102.723 204.646 97.2018 204.557C95.5689 204.531 95.6019 205.035 95.0821 206.616C94.6033 208.071 94.2116 209.554 93.9093 211.056Z" fill="#2F2E41"/>
<path d="M109.657 131.346C109.39 132.743 109.102 134.191 108.263 135.339C107.298 136.66 105.724 137.415 104.685 138.679C103.122 140.582 103.032 143.26 103.026 145.723C103.02 147.992 103.066 150.412 104.331 152.296C105.151 153.518 106.4 154.375 107.621 155.198C112.363 158.396 117.488 161.651 123.206 161.757C125.576 161.801 128.116 161.188 129.675 159.403C130.348 158.564 130.877 157.619 131.241 156.607C132.703 153.001 133.589 149.187 133.867 145.305C133.998 143.479 133.985 141.599 133.367 139.876C132.673 137.938 131.268 136.344 130.34 134.506C129.243 132.321 128.841 129.852 129.19 127.432C129.236 127.262 129.222 127.081 129.15 126.92C129.073 126.833 128.978 126.766 128.871 126.723C128.765 126.68 128.649 126.662 128.535 126.67L117.196 125.854C116.14 125.801 115.089 125.681 114.048 125.493C113.437 125.369 111.823 124.5 111.24 124.731C110.161 125.159 109.878 130.187 109.657 131.346Z" fill="#FFB8B8"/>
<path opacity="0.1" d="M109.657 131.346C109.39 132.743 109.102 134.191 108.263 135.339C107.298 136.66 105.724 137.415 104.685 138.679C103.122 140.582 103.032 143.26 103.026 145.723C103.02 147.992 103.066 150.412 104.331 152.296C105.151 153.518 106.4 154.375 107.621 155.198C112.363 158.396 117.488 161.651 123.206 161.757C125.576 161.801 128.116 161.188 129.675 159.403C130.348 158.564 130.877 157.619 131.241 156.607C132.703 153.001 133.589 149.187 133.867 145.305C133.998 143.479 133.985 141.599 133.367 139.876C132.673 137.938 131.268 136.344 130.34 134.506C129.243 132.321 128.841 129.852 129.19 127.432C129.236 127.262 129.222 127.081 129.15 126.92C129.073 126.833 128.978 126.766 128.871 126.723C128.765 126.68 128.649 126.662 128.535 126.67L117.196 125.854C116.14 125.801 115.089 125.681 114.048 125.493C113.437 125.369 111.823 124.5 111.24 124.731C110.161 125.159 109.878 130.187 109.657 131.346Z" fill="black"/>
<path d="M120.5 132.868C129.687 132.868 137.134 125.416 137.134 116.224C137.134 107.032 129.687 99.5801 120.5 99.5801C111.313 99.5801 103.866 107.032 103.866 116.224C103.866 125.416 111.313 132.868 120.5 132.868Z" fill="#FFB8B8"/>
<path d="M111.99 153.503C112.857 154.409 113.776 155.307 114.912 155.839C116.068 156.317 117.311 156.554 118.562 156.534C121.56 156.618 124.811 156.069 126.897 153.912C129.586 151.131 129.497 146.647 131.605 143.403C131.775 143.109 132.006 142.855 132.284 142.66C132.637 142.467 133.037 142.375 133.439 142.394C136.101 142.369 138.419 144.096 140.512 145.743C141.45 146.48 142.41 147.244 143.002 148.28C143.415 149.088 143.699 149.956 143.841 150.853C144.88 155.925 145.216 161.111 145.55 166.278C145.734 169.132 145.919 171.988 145.905 174.848C145.86 184.27 143.671 193.534 141.495 202.701C141.214 203.882 140.83 205.202 139.757 205.768C139.278 205.983 138.764 206.109 138.241 206.138C132.007 206.871 125.76 207.604 119.484 207.701C117.035 207.739 114.587 207.679 112.14 207.523C111.719 207.517 111.301 207.445 110.903 207.307C110.362 207.047 109.898 206.653 109.554 206.161C106.16 201.881 105.959 195.963 105.981 190.499C106.034 177.14 106.511 163.791 107.412 150.452C107.486 149.352 107.503 148.014 106.71 147.148C108.137 149.435 110.123 151.55 111.99 153.503Z" fill="#D0CDE1"/>
<path d="M108.466 134.284C107.905 135.302 103.763 137.829 102.963 138.672C98.4952 143.384 90.3407 143.207 86.2546 148.254C84.817 150.03 84.07 152.261 83.5207 154.48C82.7437 157.617 82.3289 161.038 83.6304 163.996C84.8828 166.843 87.5191 168.81 89.3091 171.353C91.2744 174.145 92.158 177.534 93.0048 180.842C93.6301 183.285 94.2605 185.788 94.017 188.297C93.7401 191.15 92.3602 193.763 91.5455 196.511C90.7307 199.26 90.5901 202.533 92.4739 204.693C93.8579 206.28 96.0287 206.909 98.1036 207.262C100.761 207.662 103.441 207.895 106.128 207.961C108.499 208.066 111.114 208.087 112.937 206.565C114.376 205.365 115.001 203.417 115.082 201.544C115.163 199.671 114.774 197.815 114.53 195.957C114.277 194.03 114.18 192.087 114.099 190.145C113.734 181.434 113.684 172.717 113.949 163.995C114.005 162.18 114.072 160.343 113.685 158.569C113.176 156.235 111.916 154.15 110.864 152.006C108.777 147.751 107.79 143.618 108.113 138.888C108.431 134.22 110.466 130.663 108.466 134.284Z" fill="#DB4949"/>
<path d="M131.825 134.638C132.681 135.518 135.589 135.808 136.677 136.375C137.701 136.848 138.77 137.219 139.867 137.48C143.838 138.626 147.615 140.361 151.072 142.626C151.791 143.046 152.426 143.595 152.946 144.245C153.555 145.093 153.776 146.151 153.982 147.174C154.515 149.816 155.051 152.49 154.931 155.182C154.804 158.04 153.944 160.808 153.09 163.539L149.901 173.741C147.52 181.356 145.125 189.046 144.455 196.997C144.084 201.404 144.249 205.839 144.946 210.206C145.016 210.645 145.074 211.148 144.785 211.485C144.575 211.693 144.298 211.82 144.004 211.845C142.464 212.085 140.975 211.3 139.58 210.605C135.317 208.483 130.768 206.993 126.076 206.184C127.91 203.533 129.324 200.615 130.27 197.533C130.808 195.576 131.231 193.589 131.538 191.583L133.021 182.997C133.625 179.859 134.05 176.689 134.294 173.502C134.406 172.307 134.337 171.101 134.088 169.926C133.746 168.808 133.292 167.727 132.732 166.7C130.287 161.611 129.14 155.804 130.102 150.24C130.523 147.805 131.341 145.367 131 142.919C130.672 140.566 131.013 138.738 130.41 136.409C127.932 126.847 130.215 132.983 131.825 134.638Z" fill="#DB4949"/>
<path d="M86.2123 156.301C85.0976 158.615 83.234 160.587 82.5997 163.077C82.3529 164.24 82.2472 165.429 82.2847 166.618C82.2697 168.41 82.26 170.238 82.8098 171.943C83.1638 173.041 83.7398 174.054 84.1547 175.13C84.733 176.634 84.9907 178.242 84.9111 179.851C84.7992 182.081 84.0422 184.245 83.983 186.476C83.89 189.985 85.5122 193.284 87.095 196.417C87.4934 195.43 88.1025 194.542 88.8798 193.815C89.6571 193.088 90.5837 192.539 91.5949 192.208C92.606 191.877 93.6773 191.771 94.7338 191.897C95.7903 192.023 96.8064 192.379 97.7111 192.939C98.1287 192.554 98.1732 191.92 98.1896 191.352C98.3066 187.28 98.4194 183.209 98.5281 179.138C98.6995 172.841 98.8627 166.46 97.4151 160.33C96.7614 157.562 95.7444 154.805 93.8801 152.658C92.8983 151.528 89.5657 148.55 87.9542 149.817C87.2295 150.386 87.3989 151.936 87.2841 152.721C87.1108 153.962 86.7493 155.169 86.2123 156.301Z" fill="#DB4949"/>
<path d="M155.257 149.63C155.784 151.273 155.816 153.028 155.826 154.754C155.848 158.273 155.801 161.792 155.687 165.311C155.628 167.112 155.547 168.938 155.001 170.655C154.641 171.788 154.086 172.85 153.714 173.979C152.6 177.362 153.209 181.031 153.304 184.592C153.372 185.744 153.273 186.9 153.012 188.025C152.424 190.232 150.844 192.016 149.741 194.016C148.694 195.916 148.062 198.045 146.811 199.817C145.56 201.589 143.394 202.993 141.295 202.449C139.705 202.037 138.575 200.628 137.793 199.183C136.088 196.004 135.504 192.342 136.138 188.789C136.922 184.468 139.459 180.634 140.374 176.338C141.631 170.439 139.721 164.351 139.778 158.32C139.752 157.374 139.88 156.431 140.158 155.527C140.637 154.149 141.668 153.049 142.62 151.944C143.81 150.563 144.916 149.112 145.931 147.597C146.612 146.58 147.538 143.964 148.747 143.746C151.445 143.26 154.588 147.545 155.257 149.63Z" fill="#DB4949"/>
<path d="M72.2113 208.432C70.7191 208.057 69.1817 207.893 67.644 207.946C66.0284 208.036 64.4504 208.468 63.0148 209.215C61.5792 209.962 60.3189 211.006 59.3178 212.278C58.3167 213.55 57.5977 215.02 57.2086 216.592C56.8194 218.163 56.7691 219.8 57.061 221.392C57.4336 223.117 58.0426 224.782 58.8708 226.34C60.082 228.8 61.5348 231.254 63.7771 232.83C65.0888 233.752 66.6069 234.327 68.107 234.892L79.9169 239.344C81.6543 239.999 83.3919 240.654 85.1465 241.261C93.9612 244.309 103.151 246.138 112.461 246.694C115.297 246.863 118.176 246.91 120.942 246.264C121.599 246.111 122.299 245.882 122.679 245.325C122.904 244.933 123.037 244.494 123.067 244.043L123.794 238.952C123.896 238.236 123.995 237.481 123.732 236.806C123.399 235.951 122.565 235.413 121.769 234.955C114.005 230.493 104.939 228.032 98.404 221.908C96.8655 220.466 95.578 218.181 93.7087 217.202C91.589 216.091 89.0927 215.457 86.9017 214.434C82.1118 212.197 77.4025 209.626 72.2113 208.432Z" fill="#2F2E41"/>
<path opacity="0.1" d="M84.0017 215.295C88.176 216.604 105.8 225.671 108.821 228.837C108.416 228.983 94.6776 221.279 94.2654 221.155C90.5182 220.03 86.7502 218.897 83.1917 217.251C82.4759 216.919 78.541 215.362 78.7192 214.458C78.9203 213.439 83.2606 215.062 84.0017 215.295Z" fill="black"/>
<path d="M136.079 249.334C136.316 249.351 136.551 249.282 136.74 249.139C136.824 249.032 136.885 248.91 136.92 248.779C136.956 248.648 136.965 248.512 136.947 248.377C136.941 246.066 136.934 243.754 136.928 241.442C134.935 240.492 132.705 240.188 130.517 239.895L120.307 238.529C120.542 238.561 118.711 242.929 118.991 243.513C119.486 244.541 123.268 245.452 124.335 245.937C128.045 247.624 131.9 249.479 136.079 249.334Z" fill="#FFB8B8"/>
<path d="M104.044 241.418C102.116 241.726 99.9648 241.997 98.7164 243.499C97.1331 245.403 97.8071 248.241 98.5624 250.6C98.6746 251.078 98.8999 251.521 99.2191 251.893C99.7345 252.401 100.524 252.476 101.247 252.522C103.005 252.633 104.876 252.72 106.412 251.857C107.108 251.397 107.778 250.899 108.419 250.365C109.551 249.611 110.796 249.041 112.108 248.678C114.518 247.919 116.999 247.407 119.513 247.151C120.503 247.105 121.484 246.933 122.43 246.636C123.357 246.287 124.215 245.594 124.484 244.64C124.84 243.38 124.108 242.095 123.406 240.99C122.531 239.613 121.605 238.163 120.301 237.15C118.398 235.671 117.457 236.806 115.541 237.752C111.914 239.544 108.038 240.779 104.044 241.418Z" fill="#FFB8B8"/>
<path d="M99.0068 243.157L86.7662 239.537C85.2775 239.096 83.7633 238.652 82.211 238.653C80.6586 238.654 79.0345 239.164 78.0277 240.346C77.0785 241.461 76.8069 242.984 76.5702 244.429L76.064 247.521C75.8068 249.092 75.5491 250.693 75.7806 252.268C76.0122 253.843 76.8157 255.416 78.2124 256.179C79.9062 257.103 81.9823 256.652 83.8727 256.265C87.6913 255.484 91.5753 255.067 95.4725 255.02C96.9377 255.003 98.4744 255.021 99.7691 254.335C101.308 253.518 102.229 251.793 102.387 250.057C102.628 247.417 101.748 243.967 99.0068 243.157Z" fill="#2F2E41"/>
<path d="M140.89 240.001C142.477 239.723 143.878 238.82 145.398 238.288C147.538 237.538 149.858 237.538 152.125 237.546C152.958 237.549 153.844 237.568 154.537 238.03C155.536 238.695 155.792 240.027 155.962 241.215L156.986 248.386C157.179 249.735 157.371 251.12 157.07 252.449C156.769 253.778 155.864 255.059 154.546 255.401C152.945 255.818 151.376 254.795 149.865 254.123C146.088 252.443 141.697 252.872 137.758 251.617C137.027 251.384 136.244 251.027 135.946 250.32C135.811 249.922 135.763 249.499 135.805 249.081C135.873 246.776 135.387 243.629 136.08 241.426C136.704 239.445 139.119 240.001 140.89 240.001Z" fill="#2F2E41"/>
<path d="M166.794 205.546C169.24 204.932 171.776 204.759 174.282 205.034C176.284 205.255 178.347 205.812 179.808 207.198C181.587 208.886 182.159 211.495 182.206 213.948C182.285 218.832 180.666 223.592 177.626 227.414C176.884 228.381 176.001 229.231 175.007 229.936C173.935 230.607 172.793 231.158 171.6 231.579L145.152 242.017C138.194 244.763 131.212 247.517 123.955 249.327C123.756 249.423 123.541 249.478 123.321 249.49C123.101 249.501 122.881 249.468 122.673 249.393C122.466 249.318 122.276 249.202 122.114 249.052C121.953 248.902 121.823 248.722 121.732 248.521C119.414 245.209 117.47 241.651 115.935 237.911C115.862 237.822 115.812 237.717 115.789 237.605C115.765 237.493 115.769 237.376 115.8 237.265C115.831 237.155 115.888 237.053 115.967 236.97C116.045 236.886 116.143 236.822 116.251 236.784L134.958 226.029C136.298 225.259 137.652 224.478 138.765 223.404C139.574 222.621 140.236 221.698 140.72 220.681C141.108 219.871 141.144 217.959 141.639 217.36C142.124 216.773 143.783 216.726 144.549 216.496C145.63 216.165 146.688 215.764 147.717 215.297C151.902 213.424 155.628 210.703 159.639 208.51C161.889 207.222 164.294 206.227 166.794 205.546Z" fill="#2F2E41"/>
<path opacity="0.1" d="M156.189 213.577C152.975 215.992 148.814 218.212 145.628 220.691C144.541 221.537 126.419 231.732 126.163 233.086C129.134 233.587 148.064 220.336 150.773 219.014C153.481 217.692 155.882 215.827 158.261 213.976C158.867 213.505 161.437 212.087 159.696 211.56C158.716 211.263 156.913 213.094 156.189 213.577Z" fill="black"/>
<path d="M138.559 101.471L124.25 93.9717L104.49 97.0395L100.401 115.107L110.578 114.715L113.421 108.077V114.606L118.117 114.425L120.843 103.858L122.546 115.107L139.24 114.766L138.559 101.471Z" fill="#2F2E41"/>
<path d="M135.365 138.534H104.574V175.718H135.365V138.534Z" fill="#3F3D56"/>
<path d="M89.9563 203.206C90.6633 204.262 91.4916 205.295 92.6272 205.865C93.3513 206.196 94.1414 206.356 94.9372 206.335C95.7329 206.314 96.5133 206.111 97.2186 205.741C98.6273 204.986 99.7804 203.829 100.532 202.417C102.087 199.67 102.409 196.382 102.215 193.23C102.021 190.078 101.349 186.975 101.051 183.831C100.835 181.546 100.817 179.247 100.799 176.952C100.746 176.469 100.847 175.982 101.088 175.561C101.433 175.09 102.064 174.96 102.622 174.794C105.761 173.861 107.844 170.918 109.338 168.002C110.335 166.056 111.202 163.928 111.01 161.749C110.818 159.57 109.252 157.375 107.077 157.152C105.284 156.969 103.629 158.109 102.335 159.365C99.0724 162.553 96.9755 166.746 96.3813 171.27C96.0974 173.486 96.1787 175.762 95.5765 177.913C94.2905 182.505 90.2669 185.321 88.2619 189.454C86.0524 194.007 87.2719 199.177 89.9563 203.206Z" fill="#FFB8B8"/>
<path d="M149.165 185.66C148.707 186.725 148.041 187.687 147.206 188.49C146.37 189.294 145.382 189.921 144.3 190.336C142.956 190.877 141.472 190.968 140.072 190.596C139.377 190.403 138.736 190.052 138.199 189.571C137.662 189.091 137.242 188.492 136.974 187.823C136.759 187.149 136.642 186.448 136.625 185.741C136.424 182.643 136.501 179.452 137.626 176.56C138.059 175.444 138.644 174.386 138.986 173.239C139.323 171.914 139.495 170.553 139.498 169.186L139.868 160.736C139.929 160.122 139.887 159.503 139.743 158.903C139.374 157.681 138.232 156.886 137.184 156.157C134.653 154.396 132.152 152.341 130.926 149.511C130.505 148.659 130.354 147.699 130.494 146.759C130.839 145.081 132.532 143.994 134.205 143.628C135.299 143.389 136.431 143.373 137.531 143.583C138.632 143.793 139.678 144.224 140.608 144.849C141.538 145.474 142.332 146.282 142.942 147.222C143.551 148.163 143.964 149.217 144.156 150.321C144.322 151.275 144.319 152.249 144.416 153.212C144.622 155.255 145.27 157.224 145.675 159.237C146.674 164.194 146.157 169.319 147.144 174.276C147.97 178.42 151.084 181.125 149.165 185.66Z" fill="#FFB8B8"/>
</g>
<defs>
<clipPath id="clip0">
<rect width="361" height="260" fill="white" transform="translate(-60)"/>
</clipPath>
</defs>
</svg>
