<svg width="318" height="470" viewBox="0 0 318 470" fill="none" xmlns="http://www.w3.org/2000/svg">
<path d="M157.44 421.857C137.292 421.857 117.767 414.882 102.192 402.121C86.6172 389.36 75.9562 371.603 72.0255 351.874C68.0948 332.146 71.1376 311.667 80.6355 293.927C90.1334 276.187 105.499 262.284 124.113 254.586C142.728 246.888 163.44 245.873 182.721 251.712C202.001 257.551 218.658 269.884 229.851 286.609C241.045 303.334 246.084 323.416 244.109 343.434C242.134 363.453 233.268 382.168 219.021 396.392C210.953 404.49 201.356 410.911 190.785 415.282C180.215 419.654 168.881 421.888 157.44 421.857ZM157.44 248.534C109.732 248.534 70.9191 287.283 70.9191 334.912C70.9191 382.541 109.732 421.291 157.44 421.291C205.148 421.291 243.961 382.541 243.961 334.912C243.961 287.283 205.148 248.534 157.44 248.534Z" fill="#3F3D56"/>
<path d="M164.775 412.256C163.162 418.208 157.638 421.894 157.638 421.894C157.638 421.894 154.729 415.93 156.342 409.979C157.955 404.027 163.479 400.341 163.479 400.341C163.479 400.341 166.388 406.304 164.775 412.256Z" fill="#DB4949"/>
<path d="M150.104 412.256C151.717 418.208 157.241 421.894 157.241 421.894C157.241 421.894 160.15 415.93 158.537 409.979C156.925 404.027 151.401 400.341 151.401 400.341C151.401 400.341 148.491 406.304 150.104 412.256Z" fill="#DB4949"/>
<path d="M152.474 410.977C156.9 415.278 157.44 421.889 157.44 421.889C157.44 421.889 150.806 421.527 146.38 417.226C141.955 412.926 141.415 406.314 141.415 406.314C141.415 406.314 148.049 406.676 152.474 410.977Z" fill="#3F3D56"/>
<path d="M162.406 410.977C157.98 415.278 157.44 421.889 157.44 421.889C157.44 421.889 164.074 421.527 168.5 417.226C172.925 412.926 173.465 406.314 173.465 406.314C173.465 406.314 166.831 406.676 162.406 410.977Z" fill="#3F3D56"/>
<path d="M150.104 257.896C151.717 251.944 157.241 248.258 157.241 248.258C157.241 248.258 160.15 254.221 158.537 260.173C156.925 266.125 151.401 269.811 151.401 269.811C151.401 269.811 148.491 263.847 150.104 257.896Z" fill="#DB4949"/>
<path d="M164.775 257.896C163.162 251.944 157.638 248.258 157.638 248.258C157.638 248.258 154.729 254.221 156.342 260.173C157.955 266.125 163.479 269.811 163.479 269.811C163.479 269.811 166.388 263.847 164.775 257.896Z" fill="#DB4949"/>
<path d="M162.406 259.175C157.98 254.874 157.44 248.263 157.44 248.263C157.44 248.263 164.074 248.624 168.5 252.925C172.925 257.226 173.465 263.837 173.465 263.837C173.465 263.837 166.831 263.475 162.406 259.175Z" fill="#3F3D56"/>
<path d="M152.474 259.175C156.9 254.874 157.44 248.263 157.44 248.263C157.44 248.263 150.806 248.624 146.38 252.925C141.955 257.226 141.415 263.837 141.415 263.837C141.415 263.837 148.049 263.475 152.474 259.175Z" fill="#3F3D56"/>
<path d="M116.898 227.59H4.14941V342.053H116.898V227.59Z" fill="#DB4949"/>
<path d="M112.638 230.495H12.1991H6.50635V236.585V337.67H12.1991V236.585H112.638V230.495Z" fill="#3F3D56"/>
<path opacity="0.3" d="M112.638 230.495H12.1991H6.50635V236.585V337.67H12.1991V236.585H112.638V230.495Z" fill="black"/>
<path opacity="0.1" d="M96.3725 236.585H91.8995H12.1992V251.2H91.8995V337.67H112.638V236.585H96.3725Z" fill="black"/>
<path d="M0 224V344.165H119.144V224H0ZM112.637 337.67H6.50613V230.495H112.637V337.67Z" fill="#3F3D56"/>
<path d="M83.6134 348.596C83.6134 348.596 89.0009 359.017 92.0314 361.37C95.0618 363.723 87.1489 366.58 87.1489 366.58L77.8892 352.125L83.6134 348.596Z" fill="#A0616A"/>
<path d="M50.9515 323.215C50.9515 323.215 76.037 329.77 78.2257 334.14C80.4144 338.51 87.1488 349.099 87.1488 349.099L77.2155 356.999L67.4507 342.376L40.5132 330.274L50.9515 323.215Z" fill="#2F2E41"/>
<path d="M86.3072 362.379C86.3072 362.379 83.9502 360.362 83.2768 361.706C82.6033 363.051 80.583 369.942 80.583 369.942C80.583 369.942 83.4451 372.632 89.3377 370.951C89.3377 370.951 90.8529 369.774 93.21 370.951C95.567 372.127 104.322 369.774 103.985 365.908C103.648 362.042 94.7252 362.379 94.7252 362.379C94.7252 362.379 90.9669 358.175 90.489 359.772C90.0111 361.37 90.6846 361.538 90.6846 361.538C90.6846 361.538 87.6541 364.732 86.3072 362.379Z" fill="#2F2E41"/>
<path d="M57.5176 358.849L55.834 372.967H64.0836C64.0836 372.967 63.4101 362.042 63.5785 360.698C63.7469 359.353 57.5176 358.849 57.5176 358.849Z" fill="#A0616A"/>
<path d="M62.2316 327.753C62.2316 327.753 66.7774 334.476 64.0836 334.98C61.3899 335.485 59.2012 327.753 59.2012 327.753H62.2316Z" fill="#A0616A"/>
<path d="M27.8863 327.081C27.8863 327.081 24.5191 336.998 37.8195 339.687C51.1199 342.376 55.1605 344.562 55.1605 344.562L56.8441 361.706L68.4609 362.378C68.4609 362.378 74.0168 336.325 66.7773 332.964C59.5379 329.602 44.2172 325.736 44.2172 325.736L27.8863 327.081Z" fill="#2F2E41"/>
<path d="M56.8443 370.782C56.8443 370.782 59.2013 369.605 59.5381 369.605C59.5381 369.605 61.0179 366.198 63.7293 366.557L69.6396 375.152C69.6396 375.152 78.5627 381.539 72.3334 383.22C66.1041 384.901 61.2217 383.556 61.2217 383.556L58.6963 381.707C58.6963 381.707 59.033 379.858 56.8443 380.194C56.8443 380.194 52.2986 378.346 52.467 377.001C52.6353 375.656 56.2114 369.803 56.2114 369.803L56.8443 370.782Z" fill="#2F2E41"/>
<path d="M58.2754 294.389C61.9947 294.389 65.0098 291.379 65.0098 287.666C65.0098 283.952 61.9947 280.942 58.2754 280.942C54.5561 280.942 51.541 283.952 51.541 287.666C51.541 291.379 54.5561 294.389 58.2754 294.389Z" fill="#A0616A"/>
<path d="M52.8037 285.564C52.8037 285.564 46.7427 289.935 45.5642 290.103C44.3857 290.271 51.1201 298.507 51.1201 298.507C51.1201 298.507 54.3189 293.296 56.3392 292.624C58.3595 291.952 52.8037 285.564 52.8037 285.564Z" fill="#A0616A"/>
<path d="M48.2581 291.112C48.2581 291.112 45.7327 287.75 44.2174 287.75C42.7022 287.75 29.0651 289.263 27.8866 300.524C26.7081 311.786 27.3815 331.451 27.3815 331.451C27.3815 331.451 26.3713 326.577 37.6514 328.594C37.6514 328.594 51.1202 325.737 53.4772 325.737C55.8342 325.737 56.8444 301.701 56.8444 301.701L53.011 295.767C53.011 295.767 51.2885 299.011 48.2581 291.112Z" fill="#D0CDE1"/>
<path d="M54.3187 300.356L56.8441 301.701L59.8746 320.19L64.0836 329.771C64.0836 329.771 59.5379 328.208 59.2012 330.082L52.4668 320.358L54.3187 300.356Z" fill="#D0CDE1"/>
<path d="M56.761 282.152L60.4247 282.609C60.3547 283.353 60.3742 284.275 61.0347 284.628C61.3453 284.793 61.7393 284.785 62.0146 285.004C62.6766 285.531 62.029 286.664 62.4028 287.422L63.4743 287.705C63.603 287.946 63.7781 288.158 63.9895 288.331C64.2009 288.504 64.4443 288.633 64.7059 288.711C64.9675 288.79 65.242 288.815 65.5137 288.787C65.7853 288.759 66.0487 288.678 66.2888 288.548C67.0088 288.116 67.3757 287.292 67.6996 286.518C68.0867 285.594 68.4817 284.601 68.288 283.618C68.0798 282.562 67.2157 281.685 67.1765 280.609C67.1589 280.128 67.2607 279.528 66.8544 279.269C66.6675 279.181 66.4662 279.128 66.2603 279.111C65.3244 278.916 64.8032 277.949 64.1052 277.297C62.6424 275.929 60.3961 275.965 58.3959 276.084C57.8233 276.087 57.2552 276.185 56.7157 276.377C56.1058 276.682 55.5667 277.111 55.1327 277.637C54.06 278.779 53.0157 279.976 52.308 281.373C51.6004 282.77 51.2518 284.403 51.6364 285.921C51.5985 285.775 52.8717 284.819 53.0301 284.666C53.5277 284.185 53.573 283.955 53.8422 283.402C54.4699 282.111 55.3427 281.975 56.761 282.152Z" fill="#2F2E41"/>
<path opacity="0.1" d="M45.9849 303.802L46.4901 315.568L53.9788 324.335L47.1635 314.559L45.9849 303.802Z" fill="black"/>
<path opacity="0.1" d="M32.5161 306.995L38.4086 320.61L45.9847 326.829L37.9034 321.282L32.5161 306.995Z" fill="black"/>
<path d="M64.5241 318.03L68.0846 320.475C68.2619 320.615 68.3857 320.811 68.4353 321.031C68.4848 321.251 68.457 321.481 68.3566 321.683L67.8804 322.664L67.9907 322.739L67.4496 323.854L67.3393 323.778L63.4174 331.858C63.3767 331.965 63.3126 332.06 63.2298 332.138C63.147 332.217 63.0477 332.275 62.9392 332.31C62.8307 332.344 62.7158 332.354 62.603 332.338C62.4901 332.323 62.3823 332.282 62.2875 332.219L58.9415 329.921C58.7376 329.76 58.5952 329.535 58.5383 329.282C58.4813 329.029 58.5133 328.764 58.6288 328.532L63.5804 318.331C63.6144 318.242 63.668 318.162 63.7371 318.097C63.8063 318.032 63.8892 317.983 63.9798 317.954C64.0705 317.925 64.1664 317.917 64.2606 317.93C64.3548 317.943 64.4449 317.977 64.5241 318.03Z" fill="#3F3D56"/>
<path d="M58.9976 328.443L62.8297 331.075L67.8289 320.775L63.9965 318.144L58.9976 328.443Z" fill="white"/>
<path d="M57.334 326.176C57.334 326.176 64.0122 330.796 61.6849 332.241C59.3576 333.686 54.5098 327.273 54.5098 327.273L57.334 326.176Z" fill="#A0616A"/>
<path d="M37.4826 291.952C37.4826 291.952 28.7279 294.473 31.2533 302.205C31.8625 304.07 32.5991 306.072 33.3661 308.037C35.7787 314.216 38.4928 320.022 38.4928 320.022L46.1025 326.891L56.3389 329.771L57.5174 328.762C57.5174 328.762 57.8541 325.569 56.3389 325.232C54.8237 324.896 52.4666 323.552 52.4666 323.552L46.4057 314.643C46.4057 314.643 46.2373 292.456 37.4826 291.952Z" fill="#D0CDE1"/>
<path d="M203.885 424.345H313.949V312.607H203.885V424.345Z" fill="#DB4949"/>
<path d="M208.044 315.442H306.091H311.649V321.387V420.065H306.091V321.387H208.044V315.442Z" fill="#3F3D56"/>
<path opacity="0.3" d="M208.044 315.442H306.091H311.649V321.387V420.065H306.091V321.387H208.044V315.442Z" fill="black"/>
<path opacity="0.1" d="M223.923 321.387H228.289H306.091V335.653H228.289V420.065H208.044V321.387H223.923Z" fill="black"/>
<path d="M201.693 309.102V426.406H318V309.102H201.693ZM208.044 315.442H311.649V420.065H208.044V315.442Z" fill="#3F3D56"/>
<path d="M269.655 364.405C267.15 360.181 262.195 359.984 262.195 359.984C262.195 359.984 257.367 359.367 254.269 365.802C251.382 371.799 247.398 377.59 253.628 378.994L254.753 375.497L255.45 379.254C256.337 379.318 257.227 379.333 258.116 379.3C264.787 379.085 271.141 379.363 270.937 376.973C270.665 373.795 272.064 368.471 269.655 364.405Z" fill="#2F2E41"/>
<path d="M251.603 398.504L251.076 407.973L266.531 409.551L267.059 399.732L261.789 396.4L251.603 398.504Z" fill="#A0616A"/>
<path d="M293.14 419.283C292.676 414.809 274.275 412.779 269.853 412.355L268.2 411.392L267.673 405.781C267.673 405.781 251.339 404.378 250.11 404.203C248.88 404.028 247.826 406.307 247.826 406.833C247.826 407.213 247.596 409.928 246.674 411.537C244.681 413.136 238.605 418.166 238.605 420.072C238.605 422.351 243.435 451.02 243.435 451.02L243.962 456.982L248.88 457.858L248.529 439.272C248.529 439.272 250.285 428.576 247.826 425.595V424.368C247.826 424.368 255.038 422.492 257.58 420.449C258.316 420.291 260.386 419.902 261.529 420.241C261.686 420.333 261.867 420.427 262.068 420.524C262.094 420.547 262.118 420.571 262.14 420.598L262.16 420.567C265.448 422.104 273.883 424.042 277.333 423.491C279.993 423.085 282.713 423.579 285.061 424.894C283.129 427.348 284.534 434.362 284.534 434.362L284.709 449.442L287.168 452.423H290.505V444.182C290.505 444.182 293.667 424.368 293.14 419.283Z" fill="#2F2E41"/>
<path d="M260.648 375.972C263.849 375.972 266.443 373.382 266.443 370.186C266.443 366.99 263.849 364.399 260.648 364.399C257.446 364.399 254.852 366.99 254.852 370.186C254.852 373.382 257.446 375.972 260.648 375.972Z" fill="#A0616A"/>
<path d="M257.135 373.868C257.135 373.868 258.013 377.726 256.784 378.076C255.811 378.398 254.871 378.809 253.974 379.304L252.569 383.863V388.422L269.605 390.351L270.132 388.772V386.493L268.2 382.986L267.322 382.109C267.322 382.109 263.458 377.901 264.336 373.868H257.135Z" fill="#A0616A"/>
<path d="M272.327 387.809C272.327 387.809 272.854 393.946 272.327 396.751C271.8 399.557 271.976 403.765 271.976 403.765L268.112 403.064V393.595L268.99 388.51L272.327 387.809Z" fill="#A0616A"/>
<path d="M262.801 363.582C264.78 363.582 266.384 361.981 266.384 360.006C266.384 358.03 264.78 356.429 262.801 356.429C260.823 356.429 259.219 358.03 259.219 360.006C259.219 361.981 260.823 363.582 262.801 363.582Z" fill="#2F2E41"/>
<path d="M258.842 359.064C258.842 358.181 259.169 357.329 259.761 356.672C260.353 356.015 261.167 355.6 262.047 355.507C261.922 355.494 261.796 355.487 261.67 355.487C260.72 355.487 259.809 355.864 259.137 356.535C258.465 357.206 258.087 358.115 258.087 359.064C258.087 360.013 258.465 360.923 259.137 361.593C259.809 362.264 260.72 362.641 261.67 362.641C261.796 362.641 261.922 362.634 262.047 362.621C261.167 362.528 260.353 362.113 259.761 361.456C259.169 360.8 258.842 359.948 258.842 359.064Z" fill="#2F2E41"/>
<path d="M268.547 363.998L263.652 361.438L256.892 362.486L255.493 368.653L258.975 368.519L259.947 366.254V368.482L261.554 368.42L262.486 364.813L263.069 368.653L268.78 368.536L268.547 363.998Z" fill="#2F2E41"/>
<path d="M248.607 451.094C248.607 451.094 251.099 452.265 251.832 452.704C252.565 453.143 255.497 452.265 254.911 454.899C254.325 457.534 251.832 460.022 251.832 460.022C251.832 460.022 250.66 461.339 250.66 462.217C250.66 463.095 247.727 469.828 244.209 469.535C240.69 469.243 241.277 465.73 241.277 465.73L242.01 461.924C242.01 461.924 243.476 455.485 243.769 455.631C244.062 455.777 244.795 456.802 244.795 456.802C244.795 456.802 248.46 455.338 248.607 451.094Z" fill="#D0CDE1"/>
<path d="M285.158 446.71C285.158 446.71 282.666 447.881 281.933 448.32C281.2 448.759 278.268 447.881 278.854 450.515C279.441 453.15 281.933 455.638 281.933 455.638C281.933 455.638 283.106 456.955 283.106 457.833C283.106 458.712 286.038 465.444 289.556 465.152C293.075 464.859 292.488 461.346 292.488 461.346L291.755 457.541C291.755 457.541 290.289 451.101 289.996 451.247C289.703 451.394 288.97 452.418 288.97 452.418C288.97 452.418 285.305 450.954 285.158 446.71Z" fill="#D0CDE1"/>
<path d="M265.835 404.991V403.599H265.525V402.981C265.525 402.839 265.497 402.698 265.443 402.567C265.388 402.435 265.308 402.316 265.208 402.215C265.107 402.115 264.988 402.035 264.856 401.981C264.725 401.926 264.584 401.898 264.441 401.898H260.724C260.437 401.898 260.161 402.012 259.958 402.215C259.754 402.418 259.64 402.694 259.64 402.981V413.34C259.64 413.627 259.754 413.903 259.958 414.106C260.161 414.309 260.437 414.423 260.724 414.423H264.441C264.729 414.423 265.004 414.309 265.208 414.106C265.411 413.903 265.525 413.627 265.525 413.34V406.846H265.835V405.455H265.525V404.991H265.835Z" fill="#D0CDE1"/>
<path d="M262.738 405.61C263.08 405.61 263.357 405.333 263.357 404.992C263.357 404.65 263.08 404.373 262.738 404.373C262.396 404.373 262.118 404.65 262.118 404.992C262.118 405.333 262.396 405.61 262.738 405.61Z" fill="#3F3D56"/>
<path d="M247.211 384.827L244.05 397.803C244.05 397.803 242.821 400.608 245.631 402.362C248.441 404.115 254.764 406.395 254.764 406.395C254.764 406.395 260.384 414.11 261.086 410.954C261.789 407.797 256.871 403.764 256.871 403.764L248.265 398.329L251.602 389.211L247.211 384.827Z" fill="#A0616A"/>
<path d="M270.044 401.135C270.044 401.135 272.679 400.784 272.503 403.765C272.327 406.746 268.815 407.096 268.815 407.096C268.815 407.096 267.234 413.76 264.951 412.532C262.667 411.305 266.18 404.642 266.18 404.642L269.166 402.362L270.044 401.135Z" fill="#A0616A"/>
<path d="M253.095 383.688L255.906 377.901L250.285 379.83C250.285 379.83 247.124 381.408 246.948 385.09C246.773 388.773 250.988 390.702 250.988 390.702C250.988 390.702 251.69 395.962 251.339 396.663C250.988 397.365 251.339 400.17 251.339 400.17C251.339 400.17 258.101 398.329 261.438 400.608C264.775 402.888 267.497 401.573 267.497 401.573C267.497 401.573 267.322 397.189 268.727 396.488C270.132 395.786 271.361 392.455 270.132 390.351C270.132 390.351 272.942 390.702 272.766 388.071C272.591 385.441 271.186 383.162 268.902 382.11C266.619 381.058 266.367 380.889 266.367 380.889L269.605 386.844V388.422C269.605 388.422 263.872 384.769 258.201 384.465C256.351 384.38 254.534 384.977 253.096 386.142L253.095 386.143V383.688Z" fill="#2F2E41"/>
<path d="M50.6108 47.0179C50.6108 44.7171 47.3321 42.852 43.2877 42.852C43.2076 42.852 43.1284 42.854 43.049 42.8555C41.829 39.1133 36.0615 36.2793 29.1297 36.2793C23.232 36.2793 18.1773 38.3309 16.0487 41.2478C14.4761 40.8313 12.8555 40.6237 11.2288 40.6303C5.02728 40.6303 0 43.4901 0 47.0179C0 50.2224 4.14861 52.8753 9.55713 53.3346C13.4873 54.0536 19.6263 54.5164 26.5259 54.5164C38.2395 54.5164 46.8105 52.2806 47.0255 50.6001C49.1719 49.8737 50.6108 48.5417 50.6108 47.0179Z" fill="#F2F2F2"/>
<path d="M218.572 48.7884C218.572 46.4877 215.293 44.6225 211.249 44.6225C211.169 44.6225 211.089 44.6245 211.01 44.626C209.79 40.8838 204.022 38.0498 197.091 38.0498C191.193 38.0498 186.138 40.1014 184.01 43.0183C182.437 42.6018 180.816 42.3942 179.19 42.4008C172.988 42.4008 167.961 45.2606 167.961 48.7884C167.961 51.993 172.11 54.6459 177.518 55.1052C181.448 55.8242 187.587 56.2869 194.487 56.2869C206.2 56.2869 214.771 54.0511 214.986 52.3706C217.133 51.6442 218.572 50.3122 218.572 48.7884Z" fill="#F2F2F2"/>
<path d="M317.316 18.8488C317.316 14.8105 311.561 11.5368 304.462 11.5368C304.321 11.5368 304.182 11.5403 304.043 11.5428C301.902 4.97433 291.778 0 279.611 0C269.259 0 260.387 3.60106 256.651 8.72089C253.891 7.98994 251.046 7.62552 248.191 7.63703C237.306 7.63703 228.481 12.6567 228.481 18.8488C228.481 24.4736 235.763 29.1302 245.257 29.9363C252.155 31.1984 262.93 32.0105 275.041 32.0105C295.601 32.0105 310.645 28.0862 311.023 25.1364C314.79 23.8616 317.316 21.5235 317.316 18.8488Z" fill="#F2F2F2"/>
</svg>
