<svg width="214" height="203" viewBox="0 0 214 203" fill="none" xmlns="http://www.w3.org/2000/svg">
<path d="M6.87109 195.646H13.0918V198H3.94141V183.781H6.87109V195.646ZM20.459 198.195C18.9095 198.195 17.6465 197.72 16.6699 196.77C15.6999 195.819 15.2148 194.553 15.2148 192.971V192.697C15.2148 191.636 15.4199 190.689 15.8301 189.855C16.2402 189.016 16.8197 188.371 17.5684 187.922C18.3236 187.466 19.1829 187.238 20.1465 187.238C21.5918 187.238 22.7279 187.694 23.5547 188.605C24.388 189.517 24.8047 190.809 24.8047 192.482V193.635H18.0762C18.1673 194.325 18.4408 194.878 18.8965 195.295C19.3587 195.712 19.9414 195.92 20.6445 195.92C21.7318 195.92 22.5814 195.526 23.1934 194.738L24.5801 196.291C24.1569 196.89 23.584 197.359 22.8613 197.697C22.1387 198.029 21.3379 198.195 20.459 198.195ZM20.1367 189.523C19.5768 189.523 19.1211 189.712 18.7695 190.09C18.4245 190.467 18.2031 191.008 18.1055 191.711H22.0312V191.486C22.0182 190.861 21.849 190.38 21.5234 190.041C21.1979 189.696 20.7357 189.523 20.1367 189.523ZM30.7949 184.836V187.434H32.6016V189.504H30.7949V194.777C30.7949 195.168 30.8698 195.448 31.0195 195.617C31.1693 195.786 31.4557 195.871 31.8789 195.871C32.1914 195.871 32.4681 195.848 32.709 195.803V197.941C32.1556 198.111 31.5859 198.195 31 198.195C29.0208 198.195 28.0117 197.196 27.9727 195.197V189.504H26.4297V187.434H27.9727V184.836H30.7949ZM36.2188 188.146L34.8906 187.375C35.4505 186.496 35.7402 185.588 35.7598 184.65V183H38.0059V184.514C38.0059 185.1 37.8431 185.734 37.5176 186.418C37.1921 187.102 36.7591 187.678 36.2188 188.146ZM44.4551 195.08C44.4551 194.735 44.2826 194.465 43.9375 194.27C43.599 194.068 43.0521 193.889 42.2969 193.732C39.7839 193.205 38.5273 192.137 38.5273 190.529C38.5273 189.592 38.9147 188.811 39.6895 188.186C40.4707 187.554 41.4896 187.238 42.7461 187.238C44.0872 187.238 45.1582 187.554 45.959 188.186C46.7663 188.817 47.1699 189.637 47.1699 190.646H44.3477C44.3477 190.243 44.2174 189.911 43.957 189.65C43.6966 189.383 43.2897 189.25 42.7363 189.25C42.2611 189.25 41.8932 189.357 41.6328 189.572C41.3724 189.787 41.2422 190.061 41.2422 190.393C41.2422 190.705 41.3887 190.959 41.6816 191.154C41.9811 191.343 42.4824 191.509 43.1855 191.652C43.8887 191.789 44.4811 191.945 44.9629 192.121C46.4538 192.668 47.1992 193.615 47.1992 194.963C47.1992 195.926 46.7858 196.708 45.959 197.307C45.1322 197.899 44.0645 198.195 42.7559 198.195C41.8704 198.195 41.0827 198.039 40.3926 197.727C39.709 197.408 39.1719 196.975 38.7812 196.428C38.3906 195.874 38.1953 195.279 38.1953 194.641H40.8711C40.8971 195.142 41.0827 195.526 41.4277 195.793C41.7728 196.06 42.235 196.193 42.8145 196.193C43.3548 196.193 43.7617 196.092 44.0352 195.891C44.3151 195.682 44.4551 195.412 44.4551 195.08ZM55.5957 192.639C55.5957 191.018 55.9798 189.712 56.748 188.723C57.5228 187.733 58.5645 187.238 59.873 187.238C61.0319 187.238 61.9336 187.635 62.5781 188.43L62.6953 187.434H65.2539V197.648C65.2539 198.573 65.0423 199.377 64.6191 200.061C64.2025 200.744 63.6133 201.265 62.8516 201.623C62.0898 201.981 61.1979 202.16 60.1758 202.16C59.401 202.16 58.6458 202.004 57.9102 201.691C57.1745 201.385 56.6178 200.988 56.2402 200.5L57.4902 198.781C58.1934 199.569 59.0462 199.963 60.0488 199.963C60.7975 199.963 61.3802 199.761 61.7969 199.357C62.2135 198.96 62.4219 198.394 62.4219 197.658V197.092C61.7708 197.827 60.9147 198.195 59.8535 198.195C58.584 198.195 57.5553 197.701 56.7676 196.711C55.9863 195.715 55.5957 194.396 55.5957 192.756V192.639ZM58.418 192.844C58.418 193.801 58.61 194.553 58.9941 195.1C59.3783 195.64 59.9056 195.91 60.5762 195.91C61.4355 195.91 62.0508 195.588 62.4219 194.943V190.5C62.0443 189.855 61.4355 189.533 60.5957 189.533C59.9186 189.533 59.3848 189.81 58.9941 190.363C58.61 190.917 58.418 191.743 58.418 192.844ZM73.2949 198.195C71.7454 198.195 70.4824 197.72 69.5059 196.77C68.5358 195.819 68.0508 194.553 68.0508 192.971V192.697C68.0508 191.636 68.2559 190.689 68.666 189.855C69.0762 189.016 69.6556 188.371 70.4043 187.922C71.1595 187.466 72.0189 187.238 72.9824 187.238C74.4277 187.238 75.5638 187.694 76.3906 188.605C77.224 189.517 77.6406 190.809 77.6406 192.482V193.635H70.9121C71.0033 194.325 71.2767 194.878 71.7324 195.295C72.1947 195.712 72.7773 195.92 73.4805 195.92C74.5677 195.92 75.4173 195.526 76.0293 194.738L77.416 196.291C76.9928 196.89 76.4199 197.359 75.6973 197.697C74.9746 198.029 74.1738 198.195 73.2949 198.195ZM72.9727 189.523C72.4128 189.523 71.957 189.712 71.6055 190.09C71.2604 190.467 71.0391 191.008 70.9414 191.711H74.8672V191.486C74.8542 190.861 74.6849 190.38 74.3594 190.041C74.0339 189.696 73.5716 189.523 72.9727 189.523ZM83.6309 184.836V187.434H85.4375V189.504H83.6309V194.777C83.6309 195.168 83.7057 195.448 83.8555 195.617C84.0052 195.786 84.2917 195.871 84.7148 195.871C85.0273 195.871 85.304 195.848 85.5449 195.803V197.941C84.9915 198.111 84.4219 198.195 83.8359 198.195C81.8568 198.195 80.8477 197.196 80.8086 195.197V189.504H79.2656V187.434H80.8086V184.836H83.6309ZM97.9355 194.006L99.8887 187.434H102.916L98.668 199.641L98.4336 200.197C97.8021 201.577 96.7604 202.268 95.3086 202.268C94.8984 202.268 94.4818 202.206 94.0586 202.082V199.943L94.4883 199.953C95.0221 199.953 95.4193 199.872 95.6797 199.709C95.9466 199.546 96.1549 199.276 96.3047 198.898L96.6367 198.029L92.9355 187.434H95.9727L97.9355 194.006ZM104.434 192.619C104.434 191.571 104.635 190.637 105.039 189.816C105.443 188.996 106.022 188.361 106.777 187.912C107.539 187.463 108.421 187.238 109.424 187.238C110.85 187.238 112.012 187.674 112.91 188.547C113.815 189.419 114.32 190.604 114.424 192.102L114.443 192.824C114.443 194.445 113.991 195.747 113.086 196.73C112.181 197.707 110.967 198.195 109.443 198.195C107.92 198.195 106.702 197.707 105.791 196.73C104.886 195.754 104.434 194.426 104.434 192.746V192.619ZM107.256 192.824C107.256 193.827 107.445 194.595 107.822 195.129C108.2 195.656 108.74 195.92 109.443 195.92C110.127 195.92 110.661 195.66 111.045 195.139C111.429 194.611 111.621 193.771 111.621 192.619C111.621 191.636 111.429 190.874 111.045 190.334C110.661 189.794 110.12 189.523 109.424 189.523C108.734 189.523 108.2 189.794 107.822 190.334C107.445 190.868 107.256 191.698 107.256 192.824ZM123.51 196.926C122.813 197.772 121.85 198.195 120.619 198.195C119.486 198.195 118.62 197.87 118.021 197.219C117.429 196.568 117.126 195.614 117.113 194.357V187.434H119.936V194.26C119.936 195.36 120.437 195.91 121.439 195.91C122.396 195.91 123.054 195.578 123.412 194.914V187.434H126.244V198H123.588L123.51 196.926ZM138 187.434L138.088 188.615C138.837 187.697 139.849 187.238 141.125 187.238C142.486 187.238 143.42 187.775 143.928 188.85C144.67 187.775 145.728 187.238 147.102 187.238C148.247 187.238 149.1 187.574 149.66 188.244C150.22 188.908 150.5 189.911 150.5 191.252V198H147.668V191.262C147.668 190.663 147.551 190.227 147.316 189.953C147.082 189.673 146.669 189.533 146.076 189.533C145.23 189.533 144.644 189.937 144.318 190.744L144.328 198H141.506V191.271C141.506 190.66 141.385 190.217 141.145 189.943C140.904 189.67 140.493 189.533 139.914 189.533C139.113 189.533 138.534 189.865 138.176 190.529V198H135.354V187.434H138ZM159.801 198C159.671 197.746 159.576 197.43 159.518 197.053C158.834 197.814 157.945 198.195 156.852 198.195C155.816 198.195 154.957 197.896 154.273 197.297C153.596 196.698 153.258 195.943 153.258 195.031C153.258 193.911 153.671 193.052 154.498 192.453C155.331 191.854 156.533 191.551 158.102 191.545H159.4V190.939C159.4 190.451 159.273 190.061 159.02 189.768C158.772 189.475 158.378 189.328 157.838 189.328C157.363 189.328 156.988 189.442 156.715 189.67C156.448 189.898 156.314 190.21 156.314 190.607H153.492C153.492 189.995 153.681 189.429 154.059 188.908C154.436 188.387 154.97 187.98 155.66 187.688C156.35 187.388 157.125 187.238 157.984 187.238C159.286 187.238 160.318 187.567 161.08 188.225C161.848 188.876 162.232 189.794 162.232 190.979V195.559C162.239 196.561 162.379 197.32 162.652 197.834V198H159.801ZM157.467 196.037C157.883 196.037 158.268 195.946 158.619 195.764C158.971 195.575 159.231 195.324 159.4 195.012V193.195H158.346C156.933 193.195 156.181 193.684 156.09 194.66L156.08 194.826C156.08 195.178 156.204 195.467 156.451 195.695C156.699 195.923 157.037 196.037 157.467 196.037ZM171.338 190.08C170.954 190.028 170.615 190.002 170.322 190.002C169.255 190.002 168.555 190.363 168.223 191.086V198H165.4V187.434H168.066L168.145 188.693C168.711 187.723 169.495 187.238 170.498 187.238C170.811 187.238 171.104 187.281 171.377 187.365L171.338 190.08ZM179.643 190.08C179.258 190.028 178.92 190.002 178.627 190.002C177.559 190.002 176.859 190.363 176.527 191.086V198H173.705V187.434H176.371L176.449 188.693C177.016 187.723 177.8 187.238 178.803 187.238C179.115 187.238 179.408 187.281 179.682 187.365L179.643 190.08ZM184.988 198H182.156V187.434H184.988V198ZM181.99 184.699C181.99 184.276 182.13 183.928 182.41 183.654C182.697 183.381 183.084 183.244 183.572 183.244C184.054 183.244 184.438 183.381 184.725 183.654C185.011 183.928 185.154 184.276 185.154 184.699C185.154 185.129 185.008 185.48 184.715 185.754C184.428 186.027 184.048 186.164 183.572 186.164C183.097 186.164 182.713 186.027 182.42 185.754C182.133 185.48 181.99 185.129 181.99 184.699ZM193.186 198.195C191.636 198.195 190.373 197.72 189.396 196.77C188.426 195.819 187.941 194.553 187.941 192.971V192.697C187.941 191.636 188.146 190.689 188.557 189.855C188.967 189.016 189.546 188.371 190.295 187.922C191.05 187.466 191.91 187.238 192.873 187.238C194.318 187.238 195.454 187.694 196.281 188.605C197.115 189.517 197.531 190.809 197.531 192.482V193.635H190.803C190.894 194.325 191.167 194.878 191.623 195.295C192.085 195.712 192.668 195.92 193.371 195.92C194.458 195.92 195.308 195.526 195.92 194.738L197.307 196.291C196.883 196.89 196.311 197.359 195.588 197.697C194.865 198.029 194.064 198.195 193.186 198.195ZM192.863 189.523C192.303 189.523 191.848 189.712 191.496 190.09C191.151 190.467 190.93 191.008 190.832 191.711H194.758V191.486C194.745 190.861 194.576 190.38 194.25 190.041C193.924 189.696 193.462 189.523 192.863 189.523ZM199.703 192.639C199.703 190.992 200.071 189.68 200.807 188.703C201.549 187.727 202.561 187.238 203.844 187.238C204.872 187.238 205.722 187.622 206.393 188.391V183H209.225V198H206.676L206.539 196.877C205.836 197.756 204.931 198.195 203.824 198.195C202.581 198.195 201.581 197.707 200.826 196.73C200.077 195.747 199.703 194.383 199.703 192.639ZM202.525 192.844C202.525 193.833 202.698 194.592 203.043 195.119C203.388 195.646 203.889 195.91 204.547 195.91C205.419 195.91 206.035 195.542 206.393 194.807V190.637C206.041 189.901 205.432 189.533 204.566 189.533C203.206 189.533 202.525 190.637 202.525 192.844Z" fill="white"/>
<g clip-path="url(#clip0)">
<path d="M24.1671 39.2786C41.4666 39.2786 53.724 36.2236 53.724 21.6469C53.724 7.07014 41.4666 4.01514 24.1671 4.01514H2.17328V5.499C5.99829 5.499 8.43238 10.1251 8.43238 15.5369V53.5062C8.43238 59.4416 6.34602 63.9805 2.69487 63.9805V65.4643H31.2955V63.9805C27.5574 63.9805 21.0375 63.3695 21.0375 53.5062V39.2786H24.1671ZM21.0375 5.499H24.1671C32.6864 5.499 39.4671 6.10999 39.4671 21.6469C39.4671 37.0965 32.6864 37.7947 24.1671 37.7947H21.0375V5.499Z" fill="white"/>
<path d="M74.7242 56.4739C73.9418 58.5687 71.9424 60.9254 68.9867 60.9254C63.3361 60.9254 63.3361 55.1646 63.3361 55.1646C63.3361 50.713 66.2049 46.6106 74.7242 44.6903C74.7242 44.6903 74.7242 56.2993 74.7242 56.4739ZM89.8503 60.9254C85.5907 60.9254 85.6776 54.8154 85.6776 54.8154V41.8099C85.6776 31.5101 82.5481 24.3527 71.16 24.3527C71.16 24.3527 66.6395 24.0035 62.7276 26.0984C57.9463 28.6297 56.8162 30.9864 55.9469 32.4703C55.0776 33.9541 55.1645 36.049 56.2077 37.7074C57.7724 39.9769 60.8151 40.5006 63.0753 39.0167C65.3355 37.4456 65.9441 34.3906 64.3793 32.1211C63.5969 30.9864 62.4668 30.3754 61.1628 30.2008C60.5543 30.1136 60.902 28.6297 63.6838 27.2331C69.6821 24.0908 74.7242 28.6297 74.7242 37.7074V43.1191C59.5111 46.9597 52.2088 47.8326 52.2088 57.3467C52.2088 66.2499 62.206 66.2499 62.206 66.2499C68.3782 66.2499 73.5071 63.0203 74.8111 59.1797C75.7674 66.2499 83.5043 66.2499 83.5043 66.2499C88.981 66.2499 92.9799 62.8457 93.6754 60.0526L92.1975 59.4416C91.6759 60.9254 89.8503 60.9254 89.8503 60.9254Z" fill="white"/>
<path d="M110.57 54.9028V0.349182L95.3569 3.57876V5.06262C98.8342 6.37191 99.7035 7.68119 99.7035 10.7362V54.9028C99.7035 59.3544 99.5297 63.0204 96.2263 63.9805V65.4644H114.134V63.9805C111.005 63.195 110.57 59.7035 110.57 54.9028ZM133.781 59.6162C133.781 59.6162 133.607 59.6162 120.741 41.3735C132.303 27.0586 141.169 26.7968 142.734 26.6222V25.1384H121.61V26.6222C132.912 26.2731 120.48 38.9295 120.48 38.9295L112.309 47.8327C112.309 47.8327 114.569 51.3241 117.177 55.1647C123.001 63.8932 123.784 65.4644 129.782 65.4644H142.039V63.9805C140.561 63.8932 136.649 63.6314 133.781 59.6162Z" fill="white"/>
<path d="M159.129 54.9028V0.349182L143.916 3.57876V5.06262C147.393 6.37191 148.263 7.68119 148.263 10.7362V54.9028C148.263 59.3544 148.089 63.0204 144.785 63.9805V65.4644H162.693V63.9805C159.564 63.195 159.129 59.7035 159.129 54.9028ZM182.34 59.6162C182.34 59.6162 182.166 59.6162 169.3 41.3735C180.862 27.0586 189.729 26.7968 191.294 26.6222V25.1384H170.169V26.6222C181.471 26.2731 169.039 38.9295 169.039 38.9295L160.868 47.8327C160.868 47.8327 163.128 51.3241 165.736 55.1647C171.56 63.8932 172.343 65.4644 178.341 65.4644H190.598V63.9805C189.121 63.8932 185.209 63.6314 182.34 59.6162Z" fill="white"/>
<path d="M208.993 11.4344C208.993 8.11754 206.298 5.49896 202.994 5.49896C199.691 5.49896 197.083 8.11754 197.083 11.4344C197.083 14.7513 199.691 17.3698 202.994 17.3698C206.298 17.3698 208.993 14.7513 208.993 11.4344ZM209.253 54.8154V24.3527L194.04 27.8441V29.328C197.605 31.2483 198.474 32.4703 198.474 35.438V54.8154C198.474 59.267 198.3 62.933 194.997 63.9804V65.4643H212.818V63.9804C209.688 63.1076 209.253 59.7034 209.253 54.8154Z" fill="white"/>
<path d="M7.47618 87.2095V88.6933C14.6046 88.6933 14.6046 90.9628 14.6046 107.372V132.773C14.6046 151.714 7.65004 159.046 0.173889 161.752L0.521617 163.235C14.6915 161.141 27.5575 153.809 27.5575 132.773V96.7236C27.5575 91.1373 31.2086 88.6933 35.1206 88.6933V87.2095H7.47618Z" fill="white"/>
<path d="M142.247 135.915C142.247 142.025 138.595 146.389 132.685 146.389C125.643 146.389 122.775 141.152 122.775 127.099C122.775 113.832 125.556 109.031 131.902 109.031C136.857 109.031 142.247 112.61 142.247 123.608V135.915ZM153.026 140.192V83.5435L137.813 86.773V88.2569C141.377 89.5662 142.247 90.439 142.247 93.494V110.166C139.465 108.507 135.814 107.547 131.815 107.547C119.645 107.547 110.43 113.832 110.43 127.885C110.43 141.676 119.123 149.444 128.947 149.444C133.033 149.444 139.465 147.524 142.247 142.374V147.786C142.247 147.786 142.247 149.706 144.681 149.357L157.46 147.437V145.953C153.895 145.516 153.026 144.469 153.026 140.192Z" fill="white"/>
<path d="M176.139 94.6287C176.139 91.3118 173.444 88.6932 170.141 88.6932C166.837 88.6932 164.23 91.3118 164.23 94.6287C164.23 97.9455 166.837 100.564 170.141 100.564C173.444 100.564 176.139 97.9455 176.139 94.6287ZM176.4 138.01V107.547L161.187 111.038V112.522C164.751 114.443 165.62 115.665 165.62 118.632V138.01C165.62 142.461 165.447 146.127 162.143 147.175V148.659H179.964V147.175C176.835 146.302 176.4 142.898 176.4 138.01Z" fill="white"/>
<path d="M72.5791 151.386C72.1461 151.389 71.7287 151.221 71.4149 150.917L54.5334 134.588C51.6608 131.884 49.5366 128.457 48.3745 124.65C46.0461 116.672 49.0324 111.237 51.972 108.077C54.4203 105.429 57.7756 103.848 61.3384 103.664C66.8278 103.456 70.5709 106.699 72.614 109.728C74.4653 107.014 78.0045 103.42 83.9887 103.664C87.5515 103.848 90.9069 105.429 93.3551 108.077C96.2947 111.231 99.3102 116.672 96.9526 124.65C95.7945 128.455 93.6766 131.882 90.8112 134.588L73.726 150.923C73.4156 151.221 73.0054 151.386 72.5791 151.386Z" fill="#FF6158"/>
</g>
<defs>
<clipPath id="clip0">
<rect width="213.255" height="163.661" fill="white"/>
</clipPath>
</defs>
</svg>
