<svg width="132" height="166" viewBox="0 0 132 166" fill="none" xmlns="http://www.w3.org/2000/svg">
<path d="M89.3392 92.8127C89.7381 93.1889 90.2691 93.3904 90.8156 93.3729C91.3621 93.3554 91.8793 93.1203 92.2535 92.7193L123.191 59.5193C123.385 59.3223 123.537 59.0883 123.64 58.831C123.742 58.5737 123.792 58.2984 123.787 58.0213C123.782 57.7443 123.722 57.471 123.61 57.2177C123.498 56.9645 123.337 56.7363 123.136 56.5467C122.935 56.3571 122.699 56.2098 122.44 56.1137C122.182 56.0176 121.907 55.9745 121.632 55.987C121.357 55.9995 121.087 56.0673 120.838 56.1864C120.589 56.3056 120.367 56.4736 120.184 56.6807L89.2464 89.8807C88.8724 90.282 88.6721 90.8162 88.6895 91.366C88.7069 91.9158 88.9406 92.4362 89.3392 92.8127Z" fill="black"/>
<path d="M39.7467 92.7193C39.9298 92.9263 40.1523 93.0944 40.401 93.2136C40.6497 93.3327 40.9196 93.4005 41.1947 93.413C41.4699 93.4255 41.7448 93.3824 42.0032 93.2863C42.2615 93.1902 42.4981 93.043 42.699 92.8533C42.8999 92.6637 43.0609 92.4355 43.1727 92.1823C43.2845 91.929 43.3448 91.6557 43.3499 91.3787C43.355 91.1016 43.3049 90.8263 43.2025 90.569C43.1002 90.3117 42.9476 90.0777 42.7539 89.8807L11.8164 56.6807C11.6333 56.4736 11.4108 56.3056 11.1621 56.1864C10.9134 56.0673 10.6435 55.9995 10.3684 55.987C10.0932 55.9745 9.81832 56.0176 9.55997 56.1137C9.30162 56.2098 9.06502 56.3571 8.86414 56.5467C8.66327 56.7363 8.50218 56.9645 8.39039 57.2177C8.2786 57.471 8.21836 57.7443 8.21325 58.0213C8.20813 58.2984 8.25823 58.5737 8.36059 58.831C8.46296 59.0883 8.61551 59.3223 8.80925 59.5193L39.7467 92.7193Z" fill="black"/>
<path d="M114.042 81.533L103.729 91.908C103.532 92.0994 103.375 92.3283 103.267 92.5815C103.159 92.8347 103.102 93.1069 103.1 93.3825C103.097 93.658 103.149 93.9312 103.253 94.1862C103.357 94.4412 103.51 94.6729 103.704 94.8677C103.897 95.0626 104.128 95.2166 104.381 95.321C104.635 95.4253 104.906 95.4778 105.18 95.4754C105.454 95.473 105.725 95.4158 105.976 95.307C106.228 95.1983 106.455 95.0402 106.646 94.842L116.958 84.467C117.334 84.0757 117.542 83.5515 117.537 83.0075C117.532 82.4634 117.315 81.943 116.933 81.5582C116.551 81.1735 116.033 80.9553 115.493 80.9506C114.952 80.9458 114.431 81.155 114.042 81.533Z" fill="black"/>
<path d="M15.0419 81.533C14.6552 81.9221 14.438 82.4498 14.438 83C14.438 83.5502 14.6552 84.0779 15.0419 84.467L25.3544 94.842C25.7434 95.22 26.2643 95.4291 26.8051 95.4244C27.3459 95.4197 27.8632 95.2015 28.2456 94.8167C28.628 94.432 28.8449 93.9116 28.8496 93.3675C28.8543 92.8235 28.6464 92.2993 28.2707 91.908L17.9582 81.533C17.5715 81.144 17.0469 80.9254 16.5 80.9254C15.9531 80.9254 15.4286 81.144 15.0419 81.533Z" fill="black"/>
<path d="M21.8748 35.1069L39.1875 42.5707V70.55C39.1878 70.9853 39.3242 71.4095 39.5774 71.7625C39.8306 72.1156 40.1877 72.3795 40.5982 72.5171C48.7906 75.2541 57.3676 76.6463 66 76.6401C74.6323 76.6464 83.2093 75.2543 91.4017 72.5171C91.8122 72.3795 92.1694 72.1156 92.4225 71.7625C92.6757 71.4095 92.8121 70.9853 92.8125 70.55V49.5033C92.8125 48.9529 92.5952 48.4252 92.2084 48.036C91.8216 47.6469 91.297 47.4283 90.75 47.4283C90.2029 47.4283 89.6783 47.6469 89.2915 48.036C88.9047 48.4252 88.6875 48.9529 88.6875 49.5033V69.0373C73.9087 73.6417 58.0912 73.6417 43.3125 69.0373V44.3448L65.1873 53.7757C65.4441 53.8864 65.7206 53.9435 66 53.9435C66.2793 53.9435 66.5558 53.8864 66.8126 53.7757L107.25 36.3457V48.1068C105.874 48.5963 104.714 49.5594 103.975 50.826C103.237 52.0926 102.967 53.5811 103.214 55.0284C103.461 56.4757 104.208 57.7887 105.324 58.7352C106.44 59.6817 107.853 60.2008 109.312 60.2008C110.772 60.2008 112.185 59.6817 113.301 58.7352C114.417 57.7887 115.164 56.4757 115.411 55.0284C115.658 53.5811 115.388 52.0926 114.649 50.826C113.911 49.5594 112.751 48.5963 111.375 48.1068V33.2C111.375 32.794 111.256 32.3969 111.034 32.0579C110.812 31.719 110.496 31.453 110.125 31.2931L66.8126 12.6181C66.5556 12.5081 66.2792 12.4515 66 12.4515C65.7207 12.4515 65.4443 12.5081 65.1873 12.6181L47.6437 20.1835C47.3859 20.2846 47.151 20.4369 46.9529 20.6312C46.7549 20.8255 46.5977 21.0579 46.4907 21.3146C46.3837 21.5713 46.3292 21.8471 46.3304 22.1254C46.3315 22.4037 46.3883 22.679 46.4974 22.9348C46.6064 23.1906 46.7656 23.4217 46.9652 23.6144C47.1649 23.807 47.4011 23.9573 47.6597 24.0563C47.9183 24.1552 48.194 24.2008 48.4705 24.1903C48.7469 24.1799 49.0185 24.1135 49.269 23.9953L66 16.7826L104.076 33.2L66 49.6174L27.9241 33.2L42.0626 27.1036C42.3153 26.9989 42.5448 26.8447 42.7378 26.6499C42.9307 26.4552 43.0833 26.2238 43.1865 25.9692C43.2898 25.7146 43.3418 25.4419 43.3394 25.1669C43.337 24.8919 43.2803 24.6202 43.1726 24.3674C43.0649 24.1147 42.9083 23.886 42.712 23.6947C42.5157 23.5034 42.2835 23.3532 42.029 23.2529C41.7745 23.1527 41.5028 23.1043 41.2295 23.1106C40.9563 23.1169 40.687 23.1779 40.4373 23.2898L21.8748 31.2931C21.504 31.4531 21.188 31.7191 20.9659 32.058C20.7439 32.397 20.6255 32.794 20.6255 33.2C20.6255 33.606 20.7439 34.003 20.9659 34.3419C21.188 34.6809 21.504 34.9469 21.8748 35.1069ZM109.312 56.025C108.905 56.025 108.506 55.9033 108.167 55.6753C107.827 55.4473 107.563 55.1232 107.407 54.7441C107.251 54.3649 107.21 53.9477 107.29 53.5452C107.369 53.1427 107.566 52.7729 107.854 52.4827C108.142 52.1926 108.51 51.9949 108.91 51.9149C109.31 51.8348 109.725 51.8759 110.102 52.0329C110.479 52.19 110.801 52.456 111.027 52.7972C111.254 53.1384 111.375 53.5396 111.375 53.95C111.375 54.5003 111.158 55.0281 110.771 55.4172C110.384 55.8064 109.859 56.025 109.312 56.025Z" fill="black"/>
<path d="M63.9375 83V87.15C63.9375 87.7003 64.1548 88.2281 64.5416 88.6173C64.9284 89.0064 65.453 89.225 66 89.225C66.547 89.225 67.0716 89.0064 67.4584 88.6173C67.8452 88.2281 68.0625 87.7003 68.0625 87.15V83C68.0625 82.4497 67.8452 81.9219 67.4584 81.5328C67.0716 81.1436 66.547 80.925 66 80.925C65.453 80.925 64.9284 81.1436 64.5416 81.5328C64.1548 81.9219 63.9375 82.4497 63.9375 83Z" fill="black"/>
<path d="M78.9793 81.533L74.8543 85.683C74.6573 85.8744 74.5001 86.1033 74.3921 86.3565C74.284 86.6097 74.2271 86.8819 74.2247 87.1575C74.2223 87.433 74.2745 87.7062 74.3782 87.9612C74.4819 88.2162 74.635 88.4479 74.8287 88.6427C75.0224 88.8376 75.2526 88.9916 75.5061 89.096C75.7596 89.2003 76.0312 89.2528 76.305 89.2504C76.5789 89.248 76.8495 89.1908 77.1012 89.082C77.3528 88.9733 77.5804 88.8152 77.7706 88.617L81.8956 84.467C82.2713 84.0757 82.4792 83.5515 82.4745 83.0075C82.4698 82.4634 82.2529 81.943 81.8705 81.5582C81.4881 81.1735 80.9708 80.9553 80.43 80.9506C79.8893 80.9458 79.3683 81.155 78.9793 81.533Z" fill="black"/>
<path d="M50.1044 81.533C49.7177 81.9221 49.5005 82.4498 49.5005 83C49.5005 83.5502 49.7177 84.0779 50.1044 84.467L54.2294 88.617C54.6184 88.995 55.1393 89.2042 55.6801 89.1994C56.2209 89.1947 56.7382 88.9765 57.1206 88.5918C57.503 88.207 57.7199 87.6866 57.7246 87.1425C57.7293 86.5985 57.5214 86.0743 57.1457 85.683L53.0207 81.533C52.634 81.144 52.1094 80.9254 51.5625 80.9254C51.0156 80.9254 50.4911 81.144 50.1044 81.533Z" fill="black"/>
<path d="M126.225 116.244L68.0625 104.136C68.0732 103.187 68.2993 102.253 68.7235 101.406C69.1478 100.559 69.759 99.8199 70.5104 99.2464C71.2619 98.673 72.1337 98.28 73.0592 98.0975C73.9847 97.9149 74.9395 97.9477 75.8505 98.1932L114.504 108.664C114.679 108.712 114.859 108.735 115.04 108.734C115.539 108.733 116.021 108.549 116.396 108.217C116.771 107.885 117.013 107.428 117.078 106.93C117.143 106.432 117.027 105.928 116.75 105.51C116.474 105.091 116.056 104.788 115.574 104.657L76.9313 94.1863C75.4031 93.766 73.7988 93.7084 72.2448 94.0181C70.6908 94.3277 69.2294 94.9962 67.9759 95.9708C67.2287 96.5522 66.5639 97.2336 66 97.996C65.4362 97.2336 64.7714 96.5522 64.0242 95.9708C62.7703 94.9969 61.3089 94.3289 59.755 94.0193C58.2011 93.7096 56.597 93.7668 55.0688 94.1863L16.4175 104.657C14.6654 105.131 13.1176 106.174 12.0139 107.623C10.9103 109.072 10.3123 110.847 10.3125 112.673V115.299L5.77503 116.246C5.30986 116.341 4.89169 116.595 4.59109 116.965C4.29049 117.335 4.12588 117.797 4.12503 118.275V126.575C4.12358 126.866 4.18293 127.154 4.29923 127.42C4.41553 127.686 4.58618 127.925 4.80011 128.121C5.01404 128.316 5.26647 128.465 5.54102 128.556C5.81557 128.647 6.10611 128.679 6.39378 128.65L33.3507 125.836C33.8952 125.78 34.3951 125.508 34.7403 125.08C35.0855 124.653 35.2478 124.105 35.1914 123.557C35.1351 123.009 34.8647 122.506 34.4398 122.159C34.0149 121.812 33.4703 121.648 32.9258 121.705L8.25003 124.276V119.964L63.9375 108.373V116.2C63.9375 116.75 64.1548 117.278 64.5416 117.667C64.9284 118.056 65.453 118.275 66 118.275C66.547 118.275 67.0716 118.056 67.4584 117.667C67.8452 117.278 68.0625 116.75 68.0625 116.2V108.373L123.75 119.964V124.276L74.4563 119.144C74.169 119.119 73.8796 119.152 73.6055 119.242C73.3314 119.332 73.0784 119.478 72.862 119.669C72.6478 119.864 72.4765 120.101 72.3593 120.367C72.2421 120.632 72.1814 120.919 72.1813 121.209V122.425C72.1813 122.975 71.964 123.503 71.5772 123.892C71.1904 124.281 70.6659 124.5 70.1188 124.5H61.875C61.328 124.5 60.8034 124.281 60.4166 123.892C60.0298 123.503 59.8125 122.975 59.8125 122.425V121.209C59.8124 120.919 59.7518 120.632 59.6346 120.367C59.5173 120.101 59.3461 119.864 59.1319 119.669C58.9162 119.476 58.6634 119.33 58.3891 119.24C58.1148 119.15 57.8249 119.117 57.5376 119.144L41.1345 120.85C40.865 120.878 40.6037 120.959 40.3654 121.089C40.1271 121.219 39.9165 121.394 39.7456 121.606C39.4006 122.033 39.2384 122.581 39.2948 123.128C39.3511 123.676 39.6214 124.179 40.0461 124.526C40.4708 124.873 41.0151 125.036 41.5594 124.979L55.7906 123.502C56.0421 124.942 56.7897 126.248 57.9023 127.189C59.0148 128.131 60.4213 128.648 61.875 128.65H70.125C71.5805 128.65 72.9894 128.134 74.1041 127.192C75.2188 126.251 75.9679 124.944 76.2197 123.502L125.606 128.65C125.678 128.65 125.749 128.66 125.813 128.66C126.36 128.66 126.884 128.442 127.271 128.053C127.658 127.664 127.875 127.136 127.875 126.585V118.275C127.875 117.797 127.71 117.334 127.41 116.964C127.109 116.594 126.691 116.339 126.225 116.244ZM14.4375 112.673C14.4376 111.76 14.7367 110.873 15.2885 110.148C15.8404 109.424 16.6141 108.903 17.49 108.666L56.1413 98.1952C57.0527 97.9483 58.0082 97.9144 58.9346 98.0961C59.861 98.2778 60.7338 98.6704 61.4863 99.2437C62.2387 99.8171 62.8507 100.556 63.2756 101.404C63.7005 102.252 63.9269 103.186 63.9375 104.136L14.4375 114.438V112.673Z" fill="black"/>
<path d="M67.5 17L33 33L67.5 49.5L103 33L67.5 17Z" fill="#FF7575"/>
</svg>
