<svg width="157" height="120" viewBox="0 0 157 120" fill="none" xmlns="http://www.w3.org/2000/svg">
<path d="M17.7919 28.8C30.5279 28.8 39.5519 26.56 39.5519 15.872C39.5519 5.184 30.5279 2.944 17.7919 2.944H1.59993V4.032C4.41593 4.032 6.20793 7.424 6.20793 11.392V39.232C6.20793 43.584 4.67193 46.912 1.98393 46.912V48H23.0399V46.912C20.2879 46.912 15.4879 46.464 15.4879 39.232V28.8H17.7919ZM15.4879 4.032H17.7919C24.0639 4.032 29.0559 4.48 29.0559 15.872C29.0559 27.2 24.0639 27.712 17.7919 27.712H15.4879V4.032Z" fill="white"/>
<path d="M55.0124 41.408C54.4364 42.944 52.9644 44.672 50.7884 44.672C46.6284 44.672 46.6284 40.448 46.6284 40.448C46.6284 37.184 48.7404 34.176 55.0124 32.768C55.0124 32.768 55.0124 41.28 55.0124 41.408ZM66.1484 44.672C63.0124 44.672 63.0764 40.192 63.0764 40.192V30.656C63.0764 23.104 60.7724 17.856 52.3884 17.856C52.3884 17.856 49.0604 17.6 46.1804 19.136C42.6604 20.992 41.8284 22.72 41.1884 23.808C40.5484 24.896 40.6124 26.432 41.3804 27.648C42.5324 29.312 44.7724 29.696 46.4364 28.608C48.1004 27.456 48.5484 25.216 47.3964 23.552C46.8204 22.72 45.9884 22.272 45.0284 22.144C44.5804 22.08 44.8364 20.992 46.8844 19.968C51.3004 17.664 55.0124 20.992 55.0124 27.648V31.616C43.8124 34.432 38.4364 35.072 38.4364 42.048C38.4364 48.576 45.7964 48.576 45.7964 48.576C50.3404 48.576 54.1164 46.208 55.0764 43.392C55.7804 48.576 61.4764 48.576 61.4764 48.576C65.5084 48.576 68.4524 46.08 68.9644 44.032L67.8764 43.584C67.4924 44.672 66.1484 44.672 66.1484 44.672Z" fill="white"/>
<path d="M81.4024 40.256V0.255997L70.2024 2.624V3.712C72.7624 4.672 73.4024 5.632 73.4024 7.872V40.256C73.4024 43.52 73.2744 46.208 70.8424 46.912V48H84.0264V46.912C81.7224 46.336 81.4024 43.776 81.4024 40.256ZM98.4904 43.712C98.4904 43.712 98.3624 43.712 88.8904 30.336C97.4024 19.84 103.93 19.648 105.082 19.52V18.432H89.5304V19.52C97.8504 19.264 88.6984 28.544 88.6984 28.544L82.6824 35.072C82.6824 35.072 84.3464 37.632 86.2664 40.448C90.5544 46.848 91.1304 48 95.5464 48H104.57V46.912C103.482 46.848 100.602 46.656 98.4904 43.712Z" fill="white"/>
<path d="M117.152 40.256V0.255997L105.952 2.624V3.712C108.512 4.672 109.152 5.632 109.152 7.872V40.256C109.152 43.52 109.024 46.208 106.592 46.912V48H119.776V46.912C117.472 46.336 117.152 43.776 117.152 40.256ZM134.24 43.712C134.24 43.712 134.112 43.712 124.64 30.336C133.152 19.84 139.68 19.648 140.832 19.52V18.432H125.28V19.52C133.6 19.264 124.448 28.544 124.448 28.544L118.432 35.072C118.432 35.072 120.096 37.632 122.016 40.448C126.304 46.848 126.88 48 131.296 48H140.32V46.912C139.232 46.848 136.352 46.656 134.24 43.712Z" fill="white"/>
<path d="M153.862 8.384C153.862 5.952 151.878 4.032 149.446 4.032C147.014 4.032 145.094 5.952 145.094 8.384C145.094 10.816 147.014 12.736 149.446 12.736C151.878 12.736 153.862 10.816 153.862 8.384ZM154.054 40.192V17.856L142.854 20.416V21.504C145.478 22.912 146.118 23.808 146.118 25.984V40.192C146.118 43.456 145.99 46.144 143.558 46.912V48H156.678V46.912C154.374 46.272 154.054 43.776 154.054 40.192Z" fill="white"/>
<path d="M5.50393 63.944V65.032C10.7519 65.032 10.7519 66.696 10.7519 78.728V97.352C10.7519 111.24 5.63193 116.616 0.12793 118.6L0.38393 119.688C10.8159 118.152 20.2879 112.776 20.2879 97.352V70.92C20.2879 66.824 22.9759 65.032 25.8559 65.032V63.944H5.50393Z" fill="white"/>
<path d="M104.723 99.656C104.723 104.136 102.035 107.336 97.6834 107.336C92.4994 107.336 90.3874 103.496 90.3874 93.192C90.3874 83.464 92.4354 79.944 97.1074 79.944C100.755 79.944 104.723 82.568 104.723 90.632V99.656ZM112.659 102.792V61.256L101.459 63.624V64.712C104.083 65.672 104.723 66.312 104.723 68.552V80.776C102.675 79.56 99.9874 78.856 97.0434 78.856C88.0834 78.856 81.2994 83.464 81.2994 93.768C81.2994 103.88 87.6994 109.576 94.9314 109.576C97.9394 109.576 102.675 108.168 104.723 104.392V108.36C104.723 108.36 104.723 109.768 106.515 109.512L115.923 108.104V107.016C113.299 106.696 112.659 105.928 112.659 102.792Z" fill="white"/>
<path d="M129.675 69.384C129.675 66.952 127.691 65.032 125.259 65.032C122.827 65.032 120.907 66.952 120.907 69.384C120.907 71.816 122.827 73.736 125.259 73.736C127.691 73.736 129.675 71.816 129.675 69.384ZM129.867 101.192V78.856L118.667 81.416V82.504C121.291 83.912 121.931 84.808 121.931 86.984V101.192C121.931 104.456 121.803 107.144 119.371 107.912V109H132.491V107.912C130.187 107.272 129.867 104.776 129.867 101.192Z" fill="white"/>
<path d="M53.4333 111C53.1145 111.002 52.8072 110.879 52.5761 110.656L40.1478 98.6829C38.033 96.7008 36.4692 94.1877 35.6136 91.3963C33.8994 85.547 36.0979 81.5618 38.2622 79.2447C40.0645 77.3033 42.5348 76.144 45.1577 76.0086C49.1991 75.8562 51.9547 78.2342 53.459 80.4555C54.8218 78.4651 57.4275 75.83 61.8331 76.0086C64.456 76.144 66.9263 77.3033 68.7286 79.2447C70.8929 81.5574 73.1128 85.547 71.3772 91.3963C70.5245 94.1859 68.9653 96.6987 66.8558 98.6829L54.2775 110.66C54.049 110.879 53.747 111 53.4333 111Z" fill="white"/>
</svg>
