<svg width="139" height="123" viewBox="0 0 139 123" fill="none" xmlns="http://www.w3.org/2000/svg">
<path d="M1.31592 1.4541V82.5246H41.3497V101.733C41.3497 105.096 44.0878 107.843 47.4463 107.843H113.598L121.085 121.746L128.622 107.838H131.587C134.946 107.838 137.684 105.092 137.684 101.729V54.0262C137.684 53.3769 137.148 52.8559 136.5 52.8762V52.8807C136.307 52.8807 136.118 52.939 135.952 53.0379L131.731 55.5266V52.5617L137.119 49.3857C137.468 49.1787 137.683 48.8036 137.684 48.3975V47.207C137.684 43.8945 135.024 41.1923 131.735 41.1111L131.744 23.8072L131.753 12.3746C131.753 11.7395 131.239 11.2247 130.605 11.2246L111.705 11.2516C111.071 11.2516 110.557 11.7665 110.557 12.4016L110.548 27.1404V41.0977H106.326V29.8178C106.326 27.6756 104.572 25.9141 102.432 25.9141H76.6014C74.4621 25.9141 72.7075 27.6756 72.7075 29.8178V41.0977H68.5803V17.4283L51.0307 1.4541H50.5866H1.31592ZM3.61279 3.7541H48.6755V19.7957H66.2834V80.2246H3.61279V3.7541ZM50.9724 4.50879L65.2426 17.4957H50.9724V4.50879ZM129.456 13.5246L129.447 23.8072L112.844 23.8252L112.853 13.5516L129.456 13.5246ZM8.0899 14.6881V16.9881H42.6058V14.6881H8.0899ZM34.9481 23.8611C34.6435 23.8612 34.3514 23.9823 34.1361 24.198C33.9207 24.4137 33.7997 24.7061 33.7997 25.0111V37.0727L27.7345 47.49C27.5811 47.7534 27.5385 48.0669 27.6159 48.3617C27.6933 48.6565 27.8844 48.9085 28.1472 49.0623C30.1423 50.2312 32.4716 50.9041 34.9481 50.9041C42.3799 50.9041 48.4287 44.8355 48.4288 37.3826C48.4288 29.9297 42.3799 23.8611 34.9481 23.8611ZM30.8299 24.5664V24.5709C30.6878 24.5673 30.5464 24.5902 30.4127 24.6383C25.1954 26.5082 21.4719 31.5182 21.4719 37.3781C21.4719 40.7481 22.7034 43.8412 24.7422 46.2098C24.8396 46.3275 24.9595 46.4247 25.0948 46.4955C25.2301 46.5664 25.3781 46.6095 25.5303 46.6223C25.6824 46.6352 25.8356 46.6176 25.9809 46.5704C26.1261 46.5233 26.2605 46.4477 26.3762 46.3479C26.492 46.2482 26.5867 46.1263 26.6548 45.9895C26.7229 45.8527 26.7631 45.7036 26.773 45.5511C26.783 45.3985 26.7624 45.2455 26.7126 45.101C26.6628 44.9564 26.5847 44.8233 26.4828 44.7094C24.7893 42.742 23.7688 40.1871 23.7688 37.3781C23.7687 32.4936 26.8677 28.3521 31.1887 26.8035C31.4442 26.7152 31.6604 26.5394 31.7992 26.3072C31.9381 26.075 31.9907 25.8012 31.9478 25.534C31.905 25.2668 31.7693 25.0232 31.5649 24.8463C31.3604 24.6693 31.1001 24.5702 30.8299 24.5664ZM129.447 26.1072V26.1117V27.0236L129.403 100.192L122.247 100.206L122.297 26.1207L129.447 26.1072ZM120 26.1207L119.95 100.206L112.835 100.219L112.844 26.1342L120 26.1207ZM36.0965 26.3947C41.333 26.9549 45.4787 30.9898 46.0242 36.2326H36.0965V26.4037V26.3947ZM76.6014 28.2141H102.432C103.338 28.2141 104.029 28.91 104.029 29.8178V41.0977H100.297V34.5031C100.297 32.9419 99.0027 31.6506 97.4437 31.6506H81.5854C80.0264 31.6506 78.7368 32.9419 78.7368 34.5031V41.0977H75.0043V29.8178C75.0043 28.91 75.6952 28.2141 76.6014 28.2141ZM81.5854 33.9506H97.4437C97.7699 33.9506 98 34.1758 98 34.5031V41.0977H81.0336V34.5031C81.0336 34.1758 81.2593 33.9506 81.5854 33.9506ZM35.6075 38.5326H46.0736C45.502 44.2017 40.7493 48.6041 34.9481 48.6041C33.306 48.6041 31.8585 48.0206 30.4575 47.3867L35.6075 38.5326ZM68.5803 43.3977H110.548L110.543 62.3592L95.1469 71.4289V69.4389C95.1469 67.8544 93.8403 66.5414 92.2578 66.5414H86.7758C85.1934 66.5414 83.8823 67.8544 83.8823 69.4389V71.4334L68.5803 62.4176V43.3977ZM131.735 43.4111C133.788 43.489 135.387 45.1289 135.387 47.207V47.7371L131.731 49.8889L131.735 43.4111ZM8.06299 55.9219V58.2219H61.8332V55.9219H8.06299ZM135.387 56.0387V101.729C135.387 103.858 133.713 105.538 131.587 105.538H129.865L131.699 102.155L131.726 58.1949L135.387 56.0387ZM8.06299 64.5154V66.8154H61.8332V64.5154H8.06299ZM110.543 65.032V68.0014L95.1469 77.0666V74.0973L110.543 65.032ZM68.5803 65.0904L83.8823 74.0973V77.0711L68.5803 68.0553V65.0904ZM86.7758 68.8414H92.2578C92.6075 68.8414 92.85 69.0888 92.85 69.4389V82.3764C92.85 82.7267 92.6075 82.9738 92.2578 82.9738H86.7758C86.4261 82.9738 86.1792 82.7267 86.1792 82.3764V69.4389C86.1792 69.0888 86.4261 68.8414 86.7758 68.8414ZM110.543 70.6697L110.539 102.164L112.36 105.543H47.4463C45.3209 105.543 43.6466 103.862 43.6466 101.733V82.5246H68.5803V70.7281L83.8823 79.735V82.3764C83.8823 83.9611 85.1934 85.2738 86.7758 85.2738H92.2578C93.8403 85.2738 95.1469 83.9611 95.1469 82.3764V79.735L110.543 70.6697ZM38.2498 73.109V75.409H61.8332V73.109H38.2498ZM128.905 102.497L121.09 116.917L113.333 102.519L128.905 102.497Z" fill="black" stroke="black"/>
</svg>
