<svg width="42" height="40" viewBox="0 0 42 40" fill="none" xmlns="http://www.w3.org/2000/svg">
<path d="M29.093 27.4929C29.2244 27.617 29.3995 27.6834 29.5797 27.6776C29.7598 27.6719 29.9304 27.5943 30.0537 27.4621L40.2532 16.5168C40.3171 16.4518 40.3674 16.3747 40.4011 16.2899C40.4348 16.205 40.4514 16.1143 40.4497 16.0229C40.448 15.9316 40.4281 15.8415 40.3913 15.758C40.3544 15.6745 40.3013 15.5993 40.2351 15.5368C40.1689 15.4743 40.0909 15.4257 40.0057 15.394C39.9205 15.3623 39.8299 15.3481 39.7392 15.3523C39.6485 15.3564 39.5595 15.3787 39.4775 15.418C39.3955 15.4573 39.3222 15.5127 39.2618 15.581L29.0624 26.5263C28.9391 26.6586 28.873 26.8347 28.8788 27.016C28.8845 27.1972 28.9615 27.3688 29.093 27.4929Z" fill="black" stroke="black" stroke-width="0.2"/>
<path d="M12.7432 27.4621C12.8036 27.5304 12.8769 27.5858 12.9589 27.6251C13.0409 27.6644 13.1299 27.6867 13.2206 27.6908C13.3113 27.695 13.4019 27.6808 13.4871 27.6491C13.5723 27.6174 13.6503 27.5688 13.7165 27.5063C13.7827 27.4438 13.8358 27.3686 13.8727 27.2851C13.9096 27.2016 13.9294 27.1115 13.9311 27.0202C13.9328 26.9288 13.9163 26.8381 13.8825 26.7532C13.8488 26.6684 13.7985 26.5913 13.7346 26.5263L3.53516 15.581C3.4748 15.5127 3.40146 15.4573 3.31947 15.418C3.23748 15.3787 3.1485 15.3564 3.05778 15.3523C2.96706 15.3481 2.87644 15.3623 2.79127 15.394C2.7061 15.4257 2.6281 15.4743 2.56187 15.5368C2.49565 15.5993 2.44254 15.6745 2.40569 15.758C2.36883 15.8415 2.34897 15.9316 2.34729 16.0229C2.3456 16.1143 2.36212 16.205 2.39586 16.2899C2.42961 16.3747 2.4799 16.4518 2.54377 16.5168L12.7432 27.4621Z" fill="black" stroke="black" stroke-width="0.2"/>
<path d="M37.2363 23.775L33.8365 27.1955C33.7715 27.2586 33.7197 27.3341 33.6841 27.4175C33.6485 27.501 33.6297 27.5907 33.6289 27.6816C33.6281 27.7724 33.6454 27.8625 33.6795 27.9466C33.7137 28.0306 33.7642 28.107 33.8281 28.1712C33.8919 28.2355 33.9678 28.2863 34.0514 28.3207C34.135 28.3551 34.2245 28.3724 34.3148 28.3716C34.4051 28.3708 34.4943 28.3519 34.5772 28.3161C34.6602 28.2802 34.7352 28.2281 34.798 28.1628L38.1978 24.7423C38.3216 24.6133 38.3902 24.4405 38.3886 24.2611C38.3871 24.0818 38.3156 23.9102 38.1895 23.7834C38.0634 23.6565 37.8929 23.5846 37.7146 23.583C37.5363 23.5815 37.3645 23.6504 37.2363 23.775Z" fill="black" stroke="black" stroke-width="0.2"/>
<path d="M4.59899 23.7745C4.47151 23.9028 4.3999 24.0768 4.3999 24.2582C4.3999 24.4396 4.47151 24.6135 4.59899 24.7418L7.9988 28.1622C8.12705 28.2868 8.29881 28.3558 8.47709 28.3542C8.65537 28.3527 8.82592 28.2807 8.95199 28.1539C9.07806 28.0271 9.14957 27.8555 9.15112 27.6761C9.15267 27.4968 9.08413 27.3239 8.96027 27.1949L5.56045 23.7745C5.43294 23.6463 5.26002 23.5742 5.07972 23.5742C4.89942 23.5742 4.7265 23.6463 4.59899 23.7745Z" fill="black" stroke="black" stroke-width="0.2"/>
<path d="M6.85231 8.46903L12.5599 10.9297V20.1539C12.56 20.2974 12.605 20.4372 12.6885 20.5536C12.7719 20.67 12.8897 20.757 13.025 20.8024C15.7259 21.7047 18.5536 22.1637 21.3995 22.1617C24.2454 22.1637 27.073 21.7048 29.7739 20.8024C29.9092 20.757 30.027 20.67 30.1104 20.5536C30.1939 20.4372 30.2389 20.2974 30.239 20.1539V13.2152C30.239 13.0338 30.1673 12.8598 30.0398 12.7315C29.9123 12.6032 29.7393 12.5311 29.559 12.5311C29.3787 12.5311 29.2057 12.6032 29.0782 12.7315C28.9507 12.8598 28.879 13.0338 28.879 13.2152V19.6552C24.0068 21.1731 18.7921 21.1731 13.9199 19.6552V11.5146L21.1315 14.6237C21.2162 14.6602 21.3073 14.6791 21.3995 14.6791C21.4916 14.6791 21.5827 14.6602 21.6674 14.6237L34.9987 8.87742V12.7548C34.545 12.9162 34.1627 13.2337 33.9192 13.6513C33.6757 14.0689 33.5868 14.5596 33.6682 15.0367C33.7495 15.5139 33.996 15.9467 34.3639 16.2588C34.7318 16.5708 35.1975 16.7419 35.6787 16.7419C36.1599 16.7419 36.6256 16.5708 36.9935 16.2588C37.3614 15.9467 37.6078 15.5139 37.6892 15.0367C37.7706 14.5596 37.6817 14.0689 37.4382 13.6513C37.1947 13.2337 36.8123 12.9162 36.3586 12.7548V7.84035C36.3586 7.7065 36.3196 7.57558 36.2463 7.46384C36.1731 7.35209 36.0689 7.26442 35.9466 7.21168L21.6674 1.05492C21.5826 1.01868 21.4915 1 21.3995 1C21.3074 1 21.2163 1.01868 21.1315 1.05492L15.3478 3.54909C15.2628 3.58242 15.1853 3.63261 15.12 3.69667C15.0547 3.76074 15.0029 3.83737 14.9677 3.92199C14.9324 4.00662 14.9144 4.09753 14.9148 4.18929C14.9152 4.28105 14.9339 4.3718 14.9699 4.45613C15.0058 4.54047 15.0583 4.61666 15.1241 4.68017C15.1899 4.74369 15.2678 4.79323 15.353 4.82586C15.4383 4.85848 15.5292 4.87351 15.6203 4.87005C15.7115 4.8666 15.801 4.84473 15.8836 4.80575L21.3995 2.42787L33.9523 7.84035L21.3995 13.2528L8.84665 7.84035L13.5078 5.83051C13.5911 5.79598 13.6668 5.74513 13.7304 5.68092C13.794 5.61672 13.8443 5.54043 13.8783 5.45649C13.9124 5.37256 13.9295 5.28265 13.9287 5.192C13.9279 5.10135 13.9092 5.01176 13.8737 4.92844C13.8382 4.84512 13.7866 4.76973 13.7219 4.70665C13.6572 4.64358 13.5806 4.59407 13.4967 4.56101C13.4128 4.52796 13.3232 4.51201 13.2331 4.51409C13.1431 4.51618 13.0543 4.53626 12.972 4.57316L6.85231 7.21168C6.73006 7.26444 6.62587 7.35213 6.55266 7.46387C6.47945 7.57562 6.44043 7.70652 6.44043 7.84035C6.44043 7.97419 6.47945 8.10508 6.55266 8.21683C6.62587 8.32857 6.73006 8.41626 6.85231 8.46903ZM35.6787 15.3653C35.5442 15.3653 35.4127 15.3252 35.3009 15.25C35.1891 15.1748 35.1019 15.068 35.0505 14.943C34.999 14.818 34.9855 14.6804 35.0118 14.5477C35.038 14.415 35.1028 14.2931 35.1979 14.1975C35.293 14.1018 35.4141 14.0367 35.546 14.0103C35.6779 13.9839 35.8146 13.9974 35.9389 14.0492C36.0631 14.101 36.1693 14.1886 36.2441 14.3011C36.3188 14.4136 36.3586 14.5459 36.3586 14.6812C36.3586 14.8626 36.287 15.0366 36.1595 15.1649C36.032 15.2932 35.859 15.3653 35.6787 15.3653Z" fill="black" stroke="black" stroke-width="0.2"/>
<path d="M20.7192 24.2583V25.6265C20.7192 25.8079 20.7909 25.9819 20.9184 26.1102C21.0459 26.2385 21.2189 26.3106 21.3992 26.3106C21.5795 26.3106 21.7525 26.2385 21.88 26.1102C22.0075 25.9819 22.0792 25.8079 22.0792 25.6265V24.2583C22.0792 24.0769 22.0075 23.9029 21.88 23.7746C21.7525 23.6463 21.5795 23.5742 21.3992 23.5742C21.2189 23.5742 21.0459 23.6463 20.9184 23.7746C20.7909 23.9029 20.7192 24.0769 20.7192 24.2583Z" fill="black" stroke="black" stroke-width="0.2"/>
<path d="M25.6769 23.775L24.317 25.1432C24.252 25.2063 24.2002 25.2818 24.1646 25.3653C24.1289 25.4487 24.1102 25.5385 24.1094 25.6293C24.1086 25.7201 24.1258 25.8102 24.16 25.8943C24.1942 25.9784 24.2447 26.0548 24.3085 26.119C24.3724 26.1832 24.4483 26.234 24.5319 26.2684C24.6154 26.3028 24.705 26.3201 24.7952 26.3193C24.8855 26.3185 24.9748 26.2997 25.0577 26.2638C25.1407 26.228 25.2157 26.1758 25.2784 26.1105L26.6384 24.7423C26.7622 24.6133 26.8308 24.4405 26.8292 24.2611C26.8277 24.0818 26.7561 23.9102 26.6301 23.7834C26.504 23.6565 26.3335 23.5846 26.1552 23.583C25.9769 23.5815 25.8051 23.6504 25.6769 23.775Z" fill="black" stroke="black" stroke-width="0.2"/>
<path d="M16.1576 23.7745C16.0301 23.9028 15.9585 24.0768 15.9585 24.2582C15.9585 24.4396 16.0301 24.6135 16.1576 24.7418L17.5175 26.11C17.6457 26.2346 17.8175 26.3035 17.9958 26.302C18.1741 26.3004 18.3446 26.2285 18.4707 26.1016C18.5968 25.9748 18.6683 25.8032 18.6698 25.6239C18.6714 25.4445 18.6028 25.2717 18.479 25.1427L17.119 23.7745C16.9915 23.6463 16.8186 23.5742 16.6383 23.5742C16.458 23.5742 16.2851 23.6463 16.1576 23.7745Z" fill="black" stroke="black" stroke-width="0.2"/>
<path d="M41.2538 35.2181L22.0789 31.2265C22.0824 30.9137 22.1569 30.6059 22.2968 30.3265C22.4367 30.0471 22.6382 29.8036 22.8859 29.6145C23.1336 29.4255 23.4211 29.2959 23.7262 29.2357C24.0313 29.1756 24.3461 29.1864 24.6464 29.2673L37.3896 32.7192C37.4472 32.735 37.5067 32.7428 37.5664 32.7424C37.731 32.7419 37.8898 32.6813 38.0133 32.572C38.1369 32.4626 38.2168 32.3119 38.2383 32.1478C38.2598 31.9836 38.2214 31.8172 38.1303 31.6793C38.0391 31.5415 37.9013 31.4416 37.7425 31.3982L25.0027 27.9463C24.4989 27.8077 23.97 27.7888 23.4577 27.8908C22.9454 27.9929 22.4636 28.2133 22.0503 28.5346C21.804 28.7263 21.5848 28.9509 21.3989 29.2023C21.213 28.9509 20.9939 28.7263 20.7475 28.5346C20.3341 28.2136 19.8524 27.9933 19.3401 27.8912C18.8278 27.7892 18.2989 27.808 17.7951 27.9463L5.05259 31.3982C4.47494 31.5547 3.96467 31.8984 3.60082 32.3761C3.23696 32.8539 3.03981 33.439 3.0399 34.0408V34.9069L1.54398 35.2188C1.39062 35.2503 1.25276 35.3341 1.15366 35.456C1.05456 35.5778 1.00029 35.7304 1.00001 35.8879V38.6242C0.999531 38.7201 1.0191 38.815 1.05744 38.9028C1.09578 38.9906 1.15204 39.0693 1.22257 39.1338C1.2931 39.1983 1.37632 39.2472 1.46683 39.2772C1.55735 39.3073 1.65313 39.3179 1.74797 39.3083L10.6351 38.3807C10.8146 38.362 10.9794 38.2723 11.0932 38.1314C11.207 37.9905 11.2605 37.8098 11.242 37.6292C11.2234 37.4486 11.1343 37.2828 10.9942 37.1683C10.8541 37.0538 10.6745 37 10.495 37.0187L2.35994 37.8662V36.4447L20.719 32.6234V35.2038C20.719 35.3852 20.7906 35.5592 20.9181 35.6875C21.0456 35.8158 21.2186 35.8879 21.3989 35.8879C21.5793 35.8879 21.7522 35.8158 21.8797 35.6875C22.0072 35.5592 22.0789 35.3852 22.0789 35.2038V32.6234L40.4379 36.4447V37.8662L24.1868 36.1745C24.0921 36.166 23.9966 36.1769 23.9063 36.2067C23.8159 36.2364 23.7325 36.2844 23.6611 36.3476C23.5905 36.4117 23.5341 36.49 23.4954 36.5774C23.4568 36.6648 23.4368 36.7595 23.4368 36.8552V37.256C23.4368 37.4375 23.3651 37.6115 23.2376 37.7397C23.1101 37.868 22.9371 37.9401 22.7568 37.9401H20.039C19.8586 37.9401 19.6857 37.868 19.5582 37.7397C19.4307 37.6115 19.359 37.4375 19.359 37.256V36.8552C19.359 36.7595 19.339 36.6648 19.3003 36.5774C19.2617 36.49 19.2052 36.4117 19.1346 36.3476C19.0635 36.284 18.9802 36.2358 18.8897 36.206C18.7993 36.1762 18.7038 36.1655 18.609 36.1745L13.2013 36.7368C13.1124 36.7461 13.0263 36.7728 12.9477 36.8156C12.8691 36.8583 12.7997 36.9162 12.7434 36.986C12.6296 37.1269 12.5762 37.3074 12.5947 37.4879C12.6133 37.6685 12.7024 37.8342 12.8424 37.9486C12.9824 38.063 13.1619 38.1168 13.3413 38.0981L18.0331 37.6111C18.116 38.086 18.3625 38.5163 18.7293 38.8267C19.096 39.137 19.5597 39.3075 20.039 39.3083H22.7588C23.2387 39.3083 23.7032 39.1382 24.0707 38.8278C24.4382 38.5174 24.6851 38.0865 24.7681 37.6111L41.0499 39.3083C41.0737 39.3083 41.0968 39.3117 41.1179 39.3117C41.2982 39.3117 41.4711 39.2396 41.5987 39.1113C41.7262 38.983 41.7978 38.809 41.7978 38.6276V35.8879C41.7977 35.7303 41.7435 35.5776 41.6444 35.4555C41.5453 35.3335 41.4073 35.2497 41.2538 35.2181ZM4.39983 34.0408C4.39986 33.74 4.49847 33.4475 4.68039 33.2087C4.86231 32.9699 5.1174 32.7981 5.40617 32.7199L18.1487 29.268C18.4492 29.1866 18.7642 29.1754 19.0696 29.2353C19.375 29.2952 19.6628 29.4246 19.9108 29.6136C20.1589 29.8027 20.3607 30.0463 20.5007 30.3258C20.6408 30.6054 20.7154 30.9135 20.719 31.2265L4.39983 34.623V34.0408Z" fill="black" stroke="black" stroke-width="0.2"/>
</svg>
