<svg id="Layer_1" data-name="Layer 1" xmlns="http://www.w3.org/2000/svg" viewBox="0 0 24.02142 23.44624"><defs><style>.cls-1{fill:none;stroke:#231f20;stroke-miterlimit:10;stroke-width:1.5px;}</style></defs><title>DOB</title><rect class="cls-1" x="0.75" y="13.62645" width="22.52142" height="9.0698" rx="3.19359"/><path class="cls-1" d="M14.40251,7.085H15.16a.9596.9596,0,0,1,.888,1.01783v4.69934A.9596.9596,0,0,1,15.16,13.82h-.75749a.95961.95961,0,0,1-.888-1.01783V8.10283A.95961.95961,0,0,1,14.40251,7.085Z" transform="translate(-2.2682 -0.19355)"/><path class="cls-1" d="M13.921,6.83547s-2.86766-.06665.67848-5.42332c2.647,2.91833,3.151,5.77722-.30267,5.47034Z" transform="translate(-2.2682 -0.19355)"/><path class="cls-1" d="M3.2,17.61591a5.96842,5.96842,0,0,1,4.66134,0,7.56659,7.56659,0,0,0,6.61148,0,5.3606,5.3606,0,0,1,4.94673-.479c1.52207.71328,3.85273,1.463,5.85045.10413" transform="translate(-2.2682 -0.19355)"/></svg>