<?xml version="1.0" encoding="utf-8"?>
<!-- Generator: Adobe Illustrator 23.0.2, SVG Export Plug-In . SVG Version: 6.00 Build 0)  -->
<svg version="1.1" id="Layer_1" xmlns="http://www.w3.org/2000/svg" xmlns:xlink="http://www.w3.org/1999/xlink" x="0px" y="0px"
	 viewBox="0 0 132 166" style="enable-background:new 0 0 132 166;" xml:space="preserve">
<style type="text/css">
	.st0{display:none;}
	.st1{display:inline;}
	.st2{display:inline;fill:#2360AD;}
	.st3{display:inline;fill:#215D9E;}
	.st4{display:inline;fill:#DD4849;}
	.st5{display:inline;fill:none;}
	.st6{fill:#2360AD;}
	.st7{fill:none;}
	.st8{fill:#DD4849;}
	.st9{fill:#205E9F;}
</style>
<g class="st0">
	<path class="st1" d="M89.3,92.8c0.4,0.4,0.9,0.6,1.5,0.6s1.1-0.3,1.4-0.7l30.9-33.2c0.2-0.2,0.3-0.4,0.4-0.7s0.2-0.5,0.1-0.8
		c0-0.3-0.1-0.6-0.2-0.8c-0.1-0.3-0.3-0.5-0.5-0.7s-0.4-0.3-0.7-0.4c-0.3-0.1-0.5-0.1-0.8-0.1s-0.5,0.1-0.8,0.2
		c-0.2,0.1-0.5,0.3-0.7,0.5L89.2,89.9c-0.4,0.4-0.6,0.9-0.6,1.5C88.7,91.9,88.9,92.4,89.3,92.8z"/>
	<path class="st1" d="M39.7,92.7c0.2,0.2,0.4,0.4,0.7,0.5c0.2,0.1,0.5,0.2,0.8,0.2s0.6,0,0.8-0.1c0.3-0.1,0.5-0.2,0.7-0.4
		c0.2-0.2,0.4-0.4,0.5-0.7c0.1-0.3,0.2-0.5,0.2-0.8s0-0.6-0.1-0.8c-0.1-0.3-0.3-0.5-0.4-0.7L11.8,56.7c-0.2-0.2-0.4-0.4-0.7-0.5
		c-0.2-0.1-0.5-0.2-0.8-0.2s-0.6,0-0.8,0.1S9,56.3,8.8,56.5s-0.4,0.4-0.5,0.7S8.1,57.7,8.1,58s0,0.6,0.1,0.8
		c0.1,0.3,0.3,0.5,0.4,0.7L39.7,92.7z"/>
	<path class="st1" d="M114,81.5l-10.3,10.4c-0.2,0.2-0.4,0.4-0.5,0.7c-0.1,0.3-0.2,0.5-0.2,0.8s0,0.5,0.2,0.8
		c0.1,0.3,0.3,0.5,0.5,0.7s0.4,0.3,0.7,0.5c0.3,0.1,0.5,0.2,0.8,0.2s0.5-0.1,0.8-0.2s0.5-0.3,0.7-0.5L117,84.5
		c0.4-0.4,0.6-0.9,0.6-1.5c0-0.5-0.2-1.1-0.6-1.4c-0.4-0.4-0.9-0.6-1.4-0.6C115,80.9,114.4,81.2,114,81.5z"/>
	<path class="st1" d="M15,81.5c-0.4,0.4-0.6,0.9-0.6,1.5s0.2,1.1,0.6,1.5l10.3,10.4c0.4,0.4,0.9,0.6,1.5,0.6s1.1-0.2,1.4-0.6
		c0.4-0.4,0.6-0.9,0.6-1.4s-0.2-1.1-0.6-1.5L18,81.5c-0.4-0.4-0.9-0.6-1.5-0.6S15.4,81.1,15,81.5z"/>
	<path class="st1" d="M21.9,35.1l17.3,7.5v28c0,0.4,0.1,0.9,0.4,1.2c0.3,0.4,0.6,0.6,1,0.8c8.2,2.7,16.8,4.1,25.4,4.1
		s17.2-1.4,25.4-4.1c0.4-0.1,0.8-0.4,1-0.8c0.3-0.4,0.4-0.8,0.4-1.2v-21c0-0.6-0.2-1.1-0.6-1.5s-0.9-0.6-1.5-0.6
		c-0.5,0-1.1,0.2-1.5,0.6c-0.4,0.4-0.6,0.9-0.6,1.5V69c-14.8,4.6-30.6,4.6-45.4,0V44.3l21.9,9.4c0.3,0.1,0.5,0.2,0.8,0.2
		s0.6-0.1,0.8-0.2l40.4-17.4v11.8c-1.4,0.5-2.5,1.5-3.3,2.7c-0.7,1.3-1,2.8-0.8,4.2s1,2.8,2.1,3.7s2.5,1.5,4,1.5s2.9-0.5,4-1.5
		c1.1-0.9,1.9-2.3,2.1-3.7s0-2.9-0.8-4.2c-0.7-1.3-1.9-2.2-3.3-2.7V33.2c0-0.4-0.1-0.8-0.3-1.1c-0.2-0.3-0.5-0.6-0.9-0.8L66.8,12.6
		c-0.3-0.1-0.5-0.2-0.8-0.2s-0.6,0.1-0.8,0.2l-17.5,7.6c-0.3,0.1-0.5,0.3-0.7,0.4c-0.2,0.2-0.4,0.4-0.5,0.7s-0.2,0.5-0.2,0.8
		s0.1,0.6,0.2,0.8c0.1,0.3,0.3,0.5,0.5,0.7s0.4,0.3,0.7,0.4s0.5,0.1,0.8,0.1s0.5-0.1,0.8-0.2L66,16.8l38.1,16.4L66,49.6L27.9,33.2
		L42,27.1c0.3-0.1,0.5-0.3,0.7-0.5s0.3-0.4,0.4-0.7c0.1-0.3,0.2-0.5,0.2-0.8s-0.1-0.5-0.2-0.8c-0.1-0.3-0.3-0.5-0.5-0.7
		s-0.4-0.3-0.7-0.4s-0.5-0.1-0.8-0.1s-0.5,0.1-0.8,0.2l-18.6,8c-0.4,0.2-0.7,0.4-0.9,0.8c-0.2,0.3-0.3,0.7-0.3,1.1
		c0,0.4,0.1,0.8,0.3,1.1C21.2,34.7,21.5,34.9,21.9,35.1z M109.3,56c-0.4,0-0.8-0.1-1.1-0.3c-0.3-0.2-0.6-0.6-0.8-0.9
		c-0.2-0.4-0.2-0.8-0.1-1.2s0.3-0.8,0.6-1.1c0.3-0.3,0.7-0.5,1.1-0.6s0.8,0,1.2,0.1c0.4,0.2,0.7,0.4,0.9,0.8
		c0.2,0.3,0.3,0.7,0.3,1.2c0,0.6-0.2,1.1-0.6,1.5C110.4,55.8,109.9,56,109.3,56z"/>
	<path class="st1" d="M63.9,83v4.2c0,0.6,0.2,1.1,0.6,1.5s0.9,0.6,1.5,0.6s1.1-0.2,1.5-0.6s0.6-0.9,0.6-1.5V83
		c0-0.6-0.2-1.1-0.6-1.5s-0.9-0.6-1.5-0.6s-1.1,0.2-1.5,0.6C64.2,81.9,63.9,82.4,63.9,83z"/>
	<path class="st1" d="M79,81.5l-4.1,4.2c-0.2,0.2-0.4,0.4-0.5,0.7c-0.1,0.3-0.2,0.5-0.2,0.8s0,0.5,0.2,0.8c0.1,0.3,0.3,0.5,0.5,0.7
		s0.4,0.3,0.7,0.5c0.3,0.1,0.5,0.2,0.8,0.2s0.5-0.1,0.8-0.2s0.5-0.3,0.7-0.5l4.1-4.1c0.4-0.4,0.6-0.9,0.6-1.5S82.4,82,82,81.7
		c-0.5-0.5-1-0.7-1.6-0.7C79.9,80.9,79.4,81.2,79,81.5z"/>
	<path class="st1" d="M50.1,81.5c-0.4,0.4-0.6,0.9-0.6,1.5s0.2,1.1,0.6,1.5l4.1,4.1c0.4,0.4,0.9,0.6,1.5,0.6c0.5,0,1.1-0.2,1.4-0.6
		c0.4-0.4,0.6-0.9,0.6-1.4s-0.2-1.1-0.6-1.5L53,81.5c-0.4-0.4-0.9-0.6-1.5-0.6S50.5,81.1,50.1,81.5z"/>
	<path class="st1" d="M126.2,116.2L68,104.1c0-0.9,0.2-1.9,0.7-2.7c0.4-0.8,1-1.6,1.8-2.2s1.6-1,2.5-1.1c0.9-0.2,1.9-0.1,2.8,0.1
		l38.7,10.5c0.2,0,0.4,0.1,0.5,0.1c0.5,0,1-0.2,1.4-0.5s0.6-0.8,0.7-1.3s-0.1-1-0.3-1.4c-0.3-0.4-0.7-0.7-1.2-0.9L76.9,94.2
		c-1.5-0.4-3.1-0.5-4.7-0.2s-3,1-4.3,2c-0.7,0.6-1.4,1.3-2,2c-0.6-0.8-1.2-1.4-2-2c-1.3-1-2.7-1.6-4.3-2c-1.6-0.3-3.2-0.3-4.7,0.2
		l-38.7,10.5c-1.8,0.5-3.3,1.5-4.4,3c-1.1,1.4-1.7,3.2-1.7,5v2.6l-4.5,0.9c-0.5,0.1-0.9,0.3-1.2,0.7c-0.3,0.4-0.5,0.8-0.5,1.3v8.3
		c0,0.3,0.1,0.6,0.2,0.8s0.3,0.5,0.5,0.7s0.5,0.3,0.7,0.4s0.6,0.1,0.9,0.1l27-2.8c0.5-0.1,1-0.3,1.4-0.8c0.3-0.4,0.5-1,0.5-1.5
		c-0.1-0.5-0.3-1.1-0.8-1.4s-1-0.5-1.5-0.5l-24.7,2.6V120l55.7-11.6v7.1c0,0.6,0.2,1.1,0.6,1.5s0.9,0.6,1.5,0.6s1.1-0.2,1.5-0.6
		s0.6-0.9,0.6-1.5v-7.1l55.7,11.6v4.3l-49.3-5.1c-0.3,0-0.6,0-0.9,0.1s-0.5,0.2-0.7,0.4c-0.2,0.2-0.4,0.4-0.5,0.7
		c-0.1,0.3-0.2,0.6-0.2,0.8v1.2c0,0.5-0.2,1.1-0.6,1.5s-0.9,0.6-1.5,0.6h-8.2c-0.5,0-1.1-0.2-1.5-0.6s-0.6-0.9-0.6-1.5v-1.2
		c0-0.3-0.1-0.6-0.2-0.8c-0.1-0.3-0.3-0.5-0.5-0.7s-0.5-0.3-0.7-0.4c-0.3-0.1-0.6-0.1-0.9-0.1L41,120.9c-0.3,0-0.5,0.1-0.8,0.2
		c-0.2,0.1-0.4,0.3-0.6,0.5c-0.3,0.4-0.5,1-0.5,1.5c0.1,0.5,0.3,1.1,0.8,1.4c0.4,0.3,1,0.5,1.5,0.5l14.2-1.5c0.3,1.4,1,2.7,2.1,3.7
		c1.1,0.9,2.5,1.5,4,1.5H70c1.5,0,2.9-0.5,4-1.5c1.1-0.9,1.9-2.2,2.1-3.7l49.4,5.1c0.1,0,0.1,0,0.2,0c0.5,0,1.1-0.2,1.5-0.6
		c0.4-0.4,0.6-0.9,0.6-1.5v-8.3c0-0.5-0.2-0.9-0.5-1.3C127.1,116.6,126.7,116.3,126.2,116.2z M14.4,112.7c0-0.9,0.3-1.8,0.9-2.5
		c0.6-0.7,1.3-1.2,2.2-1.5l38.7-10.5c0.9-0.2,1.9-0.3,2.8-0.1s1.8,0.6,2.6,1.1c0.8,0.6,1.4,1.3,1.8,2.2s0.7,1.8,0.7,2.7l-49.5,10.3
		v-1.7H14.4z"/>
	<polygon class="st2" points="66.4,48.4 30.5,33.1 66,17.9 101.7,33.2 	"/>
	<path class="st3" d="M44.3,46v22.2c0,0,21.7,7.6,43.3-0.1V50.2c0-2-2.1-3.4-3.9-2.6L66,55.2L44.3,46z"/>
	<path class="st4" d="M15.6,113.3l47-9.9c0,0-0.5-4.4-6.2-4.1c-7.1,1.8-37.3,9.8-38.6,10.2h-0.1C17.4,109.7,15.6,110,15.6,113.3z"/>
	<path class="st4" d="M116.3,113.2l-47-9.7c0,0,0.7-4.8,6-4.2c0.1,0,0.3,0,0.4,0.1c7.4,1.9,36.6,9.4,38.5,10.1h0.1
		C114.6,109.6,116.3,109.8,116.3,113.2z"/>
	<path class="st5" d="M72.3,113.7"/>
	<path class="st5" d="M74.3,99.2c0,0-4,1.4-3.8,4.1c10.5,2.1,41.2,8.4,41.2,8.4l-1.4-3.2"/>
	<path class="st4" d="M9.6,120.9v2.1l50.6-6c1.3-0.2,2.3-1.3,2.3-2.6V110L9.6,120.9z"/>
	<path class="st4" d="M122.5,120.9v2.1L72,117.3c-1.3-0.1-2.3-1.3-2.3-2.6v-4.5L122.5,120.9z"/>
</g>
<g id="Layer_1_copy">
	<path d="M89.3,92.8c0.4,0.4,0.9,0.6,1.5,0.6s1.1-0.3,1.4-0.7l30.9-33.2c0.2-0.2,0.3-0.4,0.4-0.7s0.2-0.5,0.1-0.8
		c0-0.3-0.1-0.6-0.2-0.8c-0.1-0.3-0.3-0.5-0.5-0.7s-0.4-0.3-0.7-0.4c-0.3-0.1-0.5-0.1-0.8-0.1s-0.5,0.1-0.8,0.2
		c-0.2,0.1-0.5,0.3-0.7,0.5L89.2,89.9c-0.4,0.4-0.6,0.9-0.6,1.5C88.7,91.9,88.9,92.4,89.3,92.8z"/>
	<path d="M39.7,92.7c0.2,0.2,0.4,0.4,0.7,0.5c0.2,0.1,0.5,0.2,0.8,0.2s0.6,0,0.8-0.1c0.3-0.1,0.5-0.2,0.7-0.4
		c0.2-0.2,0.4-0.4,0.5-0.7c0.1-0.3,0.2-0.5,0.2-0.8s0-0.6-0.1-0.8c-0.1-0.3-0.3-0.5-0.4-0.7L11.8,56.7c-0.2-0.2-0.4-0.4-0.7-0.5
		c-0.2-0.1-0.5-0.2-0.8-0.2s-0.6,0-0.8,0.1S9,56.3,8.8,56.5s-0.4,0.4-0.5,0.7S8.1,57.7,8.1,58s0,0.6,0.1,0.8
		c0.1,0.3,0.3,0.5,0.4,0.7L39.7,92.7z"/>
	<path d="M114,81.5l-10.3,10.4c-0.2,0.2-0.4,0.4-0.5,0.7c-0.1,0.3-0.2,0.5-0.2,0.8s0,0.5,0.2,0.8c0.1,0.3,0.3,0.5,0.5,0.7
		s0.4,0.3,0.7,0.5c0.3,0.1,0.5,0.2,0.8,0.2s0.5-0.1,0.8-0.2s0.5-0.3,0.7-0.5L117,84.5c0.4-0.4,0.6-0.9,0.6-1.5
		c0-0.5-0.2-1.1-0.6-1.4c-0.4-0.4-0.9-0.6-1.4-0.6C115,80.9,114.4,81.2,114,81.5z"/>
	<path d="M15,81.5c-0.4,0.4-0.6,0.9-0.6,1.5s0.2,1.1,0.6,1.5l10.3,10.4c0.4,0.4,0.9,0.6,1.5,0.6s1.1-0.2,1.4-0.6
		c0.4-0.4,0.6-0.9,0.6-1.4s-0.2-1.1-0.6-1.5L18,81.5c-0.4-0.4-0.9-0.6-1.5-0.6S15.4,81.1,15,81.5z"/>
	<path d="M21.9,35.1l17.3,7.5v28c0,0.4,0.1,0.9,0.4,1.2c0.3,0.4,0.6,0.6,1,0.8c8.2,2.7,16.8,4.1,25.4,4.1s17.2-1.4,25.4-4.1
		c0.4-0.1,0.8-0.4,1-0.8c0.3-0.4,0.4-0.8,0.4-1.2v-21c0-0.6-0.2-1.1-0.6-1.5s-0.9-0.6-1.5-0.6c-0.5,0-1.1,0.2-1.5,0.6
		c-0.4,0.4-0.6,0.9-0.6,1.5V69c-14.8,4.6-30.6,4.6-45.4,0V44.3l21.9,9.4c0.3,0.1,0.5,0.2,0.8,0.2s0.6-0.1,0.8-0.2l40.4-17.4v11.8
		c-1.4,0.5-2.5,1.5-3.3,2.7c-0.7,1.3-1,2.8-0.8,4.2s1,2.8,2.1,3.7s2.5,1.5,4,1.5s2.9-0.5,4-1.5c1.1-0.9,1.9-2.3,2.1-3.7
		s0-2.9-0.8-4.2c-0.7-1.3-1.9-2.2-3.3-2.7V33.2c0-0.4-0.1-0.8-0.3-1.1c-0.2-0.3-0.5-0.6-0.9-0.8L66.8,12.6c-0.3-0.1-0.5-0.2-0.8-0.2
		s-0.6,0.1-0.8,0.2l-17.5,7.6c-0.3,0.1-0.5,0.3-0.7,0.4c-0.2,0.2-0.4,0.4-0.5,0.7s-0.2,0.5-0.2,0.8s0.1,0.6,0.2,0.8
		c0.1,0.3,0.3,0.5,0.5,0.7s0.4,0.3,0.7,0.4s0.5,0.1,0.8,0.1s0.5-0.1,0.8-0.2L66,16.8l38.1,16.4L66,49.6L27.9,33.2L42,27.1
		c0.3-0.1,0.5-0.3,0.7-0.5s0.3-0.4,0.4-0.7c0.1-0.3,0.2-0.5,0.2-0.8s-0.1-0.5-0.2-0.8c-0.1-0.3-0.3-0.5-0.5-0.7s-0.4-0.3-0.7-0.4
		s-0.5-0.1-0.8-0.1s-0.5,0.1-0.8,0.2l-18.6,8c-0.4,0.2-0.7,0.4-0.9,0.8c-0.2,0.3-0.3,0.7-0.3,1.1c0,0.4,0.1,0.8,0.3,1.1
		C21.2,34.7,21.5,34.9,21.9,35.1z M109.3,56c-0.4,0-0.8-0.1-1.1-0.3c-0.3-0.2-0.6-0.6-0.8-0.9c-0.2-0.4-0.2-0.8-0.1-1.2
		s0.3-0.8,0.6-1.1c0.3-0.3,0.7-0.5,1.1-0.6s0.8,0,1.2,0.1c0.4,0.2,0.7,0.4,0.9,0.8c0.2,0.3,0.3,0.7,0.3,1.2c0,0.6-0.2,1.1-0.6,1.5
		C110.4,55.8,109.9,56,109.3,56z"/>
	<path d="M63.9,83v4.2c0,0.6,0.2,1.1,0.6,1.5s0.9,0.6,1.5,0.6s1.1-0.2,1.5-0.6s0.6-0.9,0.6-1.5V83c0-0.6-0.2-1.1-0.6-1.5
		s-0.9-0.6-1.5-0.6s-1.1,0.2-1.5,0.6C64.2,81.9,63.9,82.4,63.9,83z"/>
	<path d="M79,81.5l-4.1,4.2c-0.2,0.2-0.4,0.4-0.5,0.7c-0.1,0.3-0.2,0.5-0.2,0.8s0,0.5,0.2,0.8c0.1,0.3,0.3,0.5,0.5,0.7
		s0.4,0.3,0.7,0.5c0.3,0.1,0.5,0.2,0.8,0.2s0.5-0.1,0.8-0.2s0.5-0.3,0.7-0.5l4.1-4.1c0.4-0.4,0.6-0.9,0.6-1.5S82.4,82,82,81.7
		c-0.5-0.5-1-0.7-1.6-0.7C79.9,80.9,79.4,81.2,79,81.5z"/>
	<path d="M50.1,81.5c-0.4,0.4-0.6,0.9-0.6,1.5s0.2,1.1,0.6,1.5l4.1,4.1c0.4,0.4,0.9,0.6,1.5,0.6c0.5,0,1.1-0.2,1.4-0.6
		c0.4-0.4,0.6-0.9,0.6-1.4s-0.2-1.1-0.6-1.5L53,81.5c-0.4-0.4-0.9-0.6-1.5-0.6S50.5,81.1,50.1,81.5z"/>
	<path d="M126.2,116.2l-58.1-12.1c-0.1,0-0.1-0.1-0.1-0.2c0-0.9,0.2-1.8,0.7-2.6c0.4-0.8,1-1.6,1.8-2.2s1.6-1,2.5-1.1
		c0.9-0.2,1.9-0.1,2.8,0.1l38.7,10.5c0.2,0,0.4,0.1,0.5,0.1c0.5,0,1-0.2,1.4-0.5s0.6-0.8,0.7-1.3s-0.1-1-0.3-1.4
		c-0.3-0.4-0.7-0.7-1.2-0.9L76.9,94.2c-1.5-0.4-3.1-0.5-4.7-0.2c-1.6,0.3-3,1-4.3,2c0,0,0,0,0,0c-0.7,0.6-1.3,1.2-1.9,1.9
		c-0.1,0.1-0.2,0.1-0.2,0c-0.6-0.7-1.1-1.3-1.9-1.8c-1.3-1-2.7-1.6-4.3-2c0,0,0,0,0,0c-1.6-0.3-3.2-0.3-4.7,0.2l-38.7,10.5
		c-1.8,0.5-3.3,1.5-4.4,3c-1.1,1.4-1.7,3.2-1.7,5v2.5c0,0.1-0.1,0.1-0.1,0.2l-4.3,0.9c-0.6,0.1-1.1,0.4-1.4,0.9
		c-0.2,0.3-0.3,0.7-0.3,1.1v8.3c0,0.3,0.1,0.6,0.2,0.8s0.3,0.5,0.5,0.7s0.5,0.3,0.7,0.4s0.6,0.1,0.9,0.1l27-2.8
		c0.5-0.1,1-0.3,1.4-0.8c0.3-0.4,0.5-1,0.5-1.5c-0.1-0.5-0.3-1.1-0.8-1.4s-1-0.5-1.5-0.5l-24.5,2.6c-0.1,0-0.2-0.1-0.2-0.2v-3.8
		c0-0.1,0.1-0.1,0.1-0.2l55.4-11.5c0.1,0,0.2,0.1,0.2,0.2v6.9c0,0.6,0.2,1.1,0.6,1.5s0.9,0.6,1.5,0.6s1.1-0.2,1.5-0.6
		s0.6-0.9,0.6-1.5v-6.9c0-0.1,0.1-0.2,0.2-0.2l55.4,11.5c0.1,0,0.1,0.1,0.1,0.2v4c0,0.1-0.1,0.2-0.2,0.2l-49.1-5.1
		c-0.3,0-0.6,0-0.9,0.1s-0.5,0.2-0.7,0.4c-0.2,0.2-0.4,0.4-0.5,0.7c-0.1,0.3-0.2,0.6-0.2,0.8v1.2c0,0.5-0.2,1.1-0.6,1.5
		s-0.9,0.6-1.5,0.6h-8.2c-0.5,0-1.1-0.2-1.5-0.6s-0.6-0.9-0.6-1.5v-1.2c0-0.3-0.1-0.6-0.2-0.8c-0.1-0.3-0.3-0.5-0.5-0.7
		s-0.5-0.3-0.7-0.4c-0.3-0.1-0.6-0.1-0.9-0.1L41,120.9c-0.3,0-0.5,0.1-0.8,0.2c-0.2,0.1-0.4,0.3-0.6,0.5c-0.3,0.4-0.5,1-0.5,1.5
		c0.1,0.5,0.3,1.1,0.8,1.4c0.4,0.3,1,0.5,1.5,0.5l14.1-1.5c0.1,0,0.1,0,0.2,0.1c0.3,1.3,1,2.6,2.1,3.6c1.1,0.9,2.5,1.5,4,1.5H70
		c1.5,0,2.9-0.5,4-1.5c1.1-0.9,1.8-2.1,2.1-3.6c0-0.1,0.1-0.1,0.2-0.1l49.3,5.1c0.1,0,0.1,0,0.2,0c0.5,0,1.1-0.2,1.5-0.6
		c0.4-0.4,0.6-0.9,0.6-1.5v-8.3c0-0.5-0.2-0.9-0.5-1.3C127.1,116.6,126.7,116.3,126.2,116.2z M14.4,112.7c0-0.9,0.3-1.8,0.9-2.5
		c0.6-0.7,1.3-1.2,2.2-1.5l38.7-10.5c0.9-0.2,1.9-0.3,2.8-0.1s1.8,0.6,2.6,1.1c0.8,0.6,1.4,1.3,1.8,2.2c0.4,0.9,0.7,1.7,0.7,2.6
		c0,0.1-0.1,0.1-0.1,0.2c0,0-49.4,10.3-49.4,10.2h-0.2V112.7z"/>
	<polygon class="st6" points="66.1,48.4 30.2,33.2 66,17.9 101.7,33.2 	"/>
	<path class="st7" d="M72.3,113.7"/>
	<path class="st7" d="M74.3,99.2c0,0-4,1.4-3.8,4.1c10.5,2.1,41.2,8.4,41.2,8.4l-1.4-3.2"/>
	<path class="st8" d="M9.6,120.9v2.1l50.6-6c1.3-0.2,2.3-1.3,2.3-2.6V110L9.6,120.9z"/>
	<path class="st8" d="M122.5,120.9v2.1L72,117.3c-1.3-0.1-2.3-1.3-2.3-2.6v-4.5L122.5,120.9z"/>
</g>
<path class="st9" d="M44.3,46.3v21.5c0,0,21.6,7.6,43.2,0c0-12.8,0-21.5,0-21.5l-21.6,9.2L44.3,46.3z"/>
</svg>
