<svg width="28" height="24" viewBox="0 0 28 24" fill="none" xmlns="http://www.w3.org/2000/svg">
<path d="M15.066 3.98788C14.9998 4.07241 14.9278 4.1575 14.8713 4.22411C14.8562 4.24196 14.8422 4.25848 14.8298 4.2733L14.727 4.39564L14.5913 4.47988C14.4791 4.54951 14.3564 4.60055 14.228 4.63106L13.6473 4.76907L13.2502 4.32337C13.1295 4.18798 13.0214 4.06301 12.9192 3.94479C12.7179 3.71217 12.5393 3.50569 12.3324 3.29736L12.323 3.28787L12.3138 3.27813C11.2744 2.17388 9.9145 1.42252 8.42509 1.12991L8.42508 1.12996L8.41469 1.12781C7.23763 0.883557 6.01376 1.00847 4.91059 1.48541C3.80742 1.96233 2.87898 2.76789 2.25209 3.79167L2.24606 3.80152L2.23979 3.81124C1.20428 5.41773 0.870712 7.20191 1.04302 9.16932C1.21017 11.0694 1.9988 12.7596 3.14223 14.3957C5.19636 17.3219 7.62876 19.8251 10.617 21.7298C11.6303 22.3752 12.6091 22.8435 13.6787 22.979C14.3983 23.0677 15.1053 22.8694 15.9412 22.5013C17.3899 21.8246 18.7307 20.9384 19.9205 19.8712L19.9299 19.8627L19.9395 19.8545C22.0574 18.0493 23.8924 15.9374 25.3833 13.5891L25.3882 13.5814L25.3933 13.5738C26.4217 12.0174 26.9795 10.1984 27 8.33408C26.999 6.04674 26.3589 4.11906 24.762 2.60901L24.7619 2.60891C22.9138 0.86071 20.2826 0.507901 17.8832 1.69294C16.7864 2.24165 15.8244 3.02529 15.066 3.98788Z" stroke="black" stroke-width="2"/>
</svg>
