<svg width="19" height="24" viewBox="0 0 19 24" fill="none" xmlns="http://www.w3.org/2000/svg">
<path d="M18.9677 7.71647C18.8404 9.18143 18.24 10.4563 17.423 11.639C15.9885 13.7069 14.2766 15.4944 12.16 16.8595C11.4361 17.3261 10.6723 17.7082 9.8021 17.8195C9.1276 17.904 8.5082 17.7062 7.9021 17.4355C6.85615 16.942 5.8881 16.295 5.0293 15.5155C3.54063 14.2316 2.25077 12.7295 1.2027 11.0592C0.432211 9.87941 0.0146375 8.50018 0 7.08671C0 5.37599 0.4788 3.85151 1.7309 2.65343C3.2053 1.24224 5.301 0.975355 7.1668 1.90847C8.00123 2.33057 8.73307 2.93375 9.31 3.67487C9.3575 3.73631 9.4069 3.79391 9.4563 3.85343C9.47038 3.86227 9.48578 3.86876 9.5019 3.87263C9.7166 3.62879 9.9218 3.37344 10.1498 3.14112C10.9523 2.27843 12.0022 1.69157 13.1518 1.46304C14.0872 1.26662 15.0599 1.36706 15.9367 1.75061C16.8134 2.13416 17.5515 2.78209 18.05 3.60575C18.8499 4.86143 19.095 6.24575 18.9677 7.71647Z" fill="white"/>
<path d="M8.61109 9.37037C9.54179 9.37037 10.2963 8.61589 10.2963 7.68519C10.2963 6.75448 9.54179 6 8.61109 6C7.68039 6 6.9259 6.75448 6.9259 7.68519C6.9259 8.61589 7.68039 9.37037 8.61109 9.37037Z" fill="#0A66C2"/>
<path d="M5.00599 12.7209C4.95917 12.9843 5.19326 13.2222 5.48354 13.2222H11.7385C12.0381 13.2222 12.2629 12.9843 12.216 12.7209C11.9445 11.2 10.4369 10.3333 8.61101 10.3333C6.78509 10.3333 5.27754 11.2 5.00599 12.7209Z" fill="#0A66C2"/>
<path d="M11.3889 9.62037C12.4576 9.62037 13.324 8.75396 13.324 7.68519C13.324 6.61641 12.4576 5.75 11.3889 5.75C10.3201 5.75 9.45367 6.61641 9.45367 7.68519C9.45367 8.75396 10.3201 9.62037 11.3889 9.62037Z" fill="#0A66C2" stroke="white" stroke-width="0.5"/>
<path d="M7.53759 12.677L7.53756 12.6772C7.45744 13.1279 7.85219 13.4722 8.26125 13.4722H14.5162C14.9382 13.4722 15.3194 13.1247 15.2399 12.6772L15.2399 12.677C14.9379 10.9856 13.2749 10.0833 11.3887 10.0833C9.50253 10.0833 7.83958 10.9856 7.53759 12.677ZM7.7837 12.7209C7.73688 12.9843 7.97097 13.2222 8.26125 13.2222H14.5162C14.8158 13.2222 15.0406 12.9843 14.9937 12.7209C14.7222 11.2 13.2146 10.3333 11.3887 10.3333C9.5628 10.3333 8.05525 11.2 7.7837 12.7209Z" fill="#0A66C2" stroke="white" stroke-width="0.5"/>
</svg>
