<svg width="267" height="259" viewBox="0 0 267 259" fill="none" xmlns="http://www.w3.org/2000/svg">
<path d="M157.759 138.231C156.807 149.096 152.32 158.551 146.214 167.323C135.493 182.659 122.699 195.917 106.88 206.041C101.47 209.502 95.7614 212.336 89.2578 213.161C84.2168 213.788 79.5876 212.321 75.0578 210.313C67.2407 206.653 60.0058 201.855 53.5874 196.073C42.4616 186.551 32.8216 175.41 24.9886 163.022C19.2302 154.272 16.1094 144.043 16 133.56C16 120.872 19.5784 109.565 28.9362 100.68C39.9554 90.2133 55.618 88.234 69.5624 95.1546C75.7986 98.2851 81.2682 102.759 85.58 108.255C85.935 108.711 86.3042 109.138 86.6734 109.58C86.7786 109.645 86.8937 109.693 87.0142 109.722C88.6188 107.914 90.1524 106.02 91.8564 104.297C97.8541 97.8984 105.7 93.5459 114.292 91.8509C121.284 90.3942 128.553 91.1391 135.106 93.9838C141.658 96.8285 147.175 101.634 150.9 107.743C156.878 117.056 158.71 127.323 157.759 138.231Z" fill="#DB4949"/>
<path d="M94.9456 63.8608C94.7312 66.3024 93.72 68.4272 92.344 70.3984C89.928 73.8448 87.0448 76.824 83.48 79.0992C82.2608 79.8768 80.9744 80.5136 79.5088 80.6992C78.3728 80.84 77.3296 80.5104 76.3088 80.0592C74.5472 79.2366 72.9168 78.1583 71.4704 76.8592C68.9632 74.7193 66.7908 72.2158 65.0256 69.432C63.7279 67.4657 63.0247 65.1669 63 62.8112C63 59.96 63.8064 57.4192 65.9152 55.4224C68.3984 53.0704 71.928 52.6256 75.0704 54.1808C76.4758 54.8843 77.7083 55.8896 78.68 57.1248C78.76 57.2272 78.8432 57.3232 78.9264 57.4224C78.9501 57.4371 78.976 57.4479 79.0032 57.4544C79.3648 57.048 79.7104 56.6224 80.0944 56.2352C81.446 54.7974 83.2142 53.8193 85.1504 53.4384C86.7259 53.111 88.364 53.2784 89.8407 53.9177C91.3174 54.5569 92.5605 55.6368 93.4 57.0096C94.7472 59.1024 95.16 61.4096 94.9456 63.8608Z" fill="#F2E3E3"/>
<path d="M209.946 126.861C209.731 129.302 208.72 131.427 207.344 133.398C204.928 136.845 202.045 139.824 198.48 142.099C197.261 142.877 195.974 143.514 194.509 143.699C193.373 143.84 192.33 143.51 191.309 143.059C189.547 142.237 187.917 141.158 186.47 139.859C183.963 137.719 181.791 135.216 180.026 132.432C178.728 130.466 178.025 128.167 178 125.811C178 122.96 178.806 120.419 180.915 118.422C183.398 116.07 186.928 115.626 190.07 117.181C191.476 117.884 192.708 118.89 193.68 120.125C193.76 120.227 193.843 120.323 193.926 120.422C193.95 120.437 193.976 120.448 194.003 120.454C194.365 120.048 194.71 119.622 195.094 119.235C196.446 117.797 198.214 116.819 200.15 116.438C201.726 116.111 203.364 116.278 204.841 116.918C206.317 117.557 207.561 118.637 208.4 120.01C209.747 122.102 210.16 124.41 209.946 126.861Z" fill="#F2E3E3"/>
<path d="M255.946 38.8608C255.731 41.3024 254.72 43.4272 253.344 45.3984C250.928 48.8448 248.045 51.824 244.48 54.0992C243.261 54.8768 241.974 55.5136 240.509 55.6992C239.373 55.84 238.33 55.5104 237.309 55.0592C235.547 54.2366 233.917 53.1583 232.47 51.8592C229.963 49.7193 227.791 47.2158 226.026 44.432C224.728 42.4657 224.025 40.1669 224 37.8112C224 34.96 224.806 32.4192 226.915 30.4224C229.398 28.0704 232.928 27.6256 236.07 29.1808C237.476 29.8843 238.708 30.8896 239.68 32.1248C239.76 32.2272 239.843 32.3232 239.926 32.4224C239.95 32.4371 239.976 32.4479 240.003 32.4544C240.365 32.048 240.71 31.6224 241.094 31.2352C242.446 29.7974 244.214 28.8193 246.15 28.4384C247.726 28.111 249.364 28.2784 250.841 28.9177C252.317 29.5569 253.561 30.6368 254.4 32.0096C255.747 34.1024 256.16 36.4096 255.946 38.8608Z" fill="#F2E3E3"/>
<path d="M88.9456 20.8608C88.7312 23.3024 87.72 25.4272 86.344 27.3984C83.928 30.8448 81.0448 33.824 77.48 36.0992C76.2608 36.8768 74.9744 37.5136 73.5088 37.6992C72.3728 37.84 71.3296 37.5104 70.3088 37.0592C68.5472 36.2366 66.9168 35.1583 65.4704 33.8592C62.9632 31.7193 60.7908 29.2158 59.0256 26.432C57.7279 24.4657 57.0247 22.1669 57 19.8112C57 16.96 57.8064 14.4192 59.9152 12.4224C62.3984 10.0704 65.928 9.62557 69.0704 11.1808C70.4758 11.8843 71.7083 12.8896 72.68 14.1248C72.76 14.2272 72.8432 14.3232 72.9264 14.4224C72.9501 14.4371 72.976 14.4479 73.0032 14.4544C73.3648 14.048 73.7104 13.6224 74.0944 13.2352C75.446 11.7974 77.2142 10.8193 79.1504 10.4384C80.7259 10.111 82.364 10.2784 83.8407 10.9177C85.3174 11.5569 86.5605 12.6368 87.4 14.0096C88.7472 16.1024 89.16 18.4096 88.9456 20.8608Z" fill="#F2E3E3"/>
<path d="M190.946 78.8608C190.731 81.3024 189.72 83.4272 188.344 85.3984C185.928 88.8448 183.045 91.824 179.48 94.0992C178.261 94.8768 176.974 95.5136 175.509 95.6992C174.373 95.84 173.33 95.5104 172.309 95.0592C170.547 94.2366 168.917 93.1583 167.47 91.8592C164.963 89.7193 162.791 87.2158 161.026 84.432C159.728 82.4657 159.025 80.1669 159 77.8112C159 74.96 159.806 72.4192 161.915 70.4224C164.398 68.0704 167.928 67.6256 171.07 69.1808C172.476 69.8843 173.708 70.8896 174.68 72.1248C174.76 72.2272 174.843 72.3232 174.926 72.4224C174.95 72.4371 174.976 72.4479 175.003 72.4544C175.365 72.048 175.71 71.6224 176.094 71.2352C177.446 69.7974 179.214 68.8193 181.15 68.4384C182.726 68.111 184.364 68.2784 185.841 68.9177C187.317 69.5569 188.561 70.6368 189.4 72.0096C190.747 74.1024 191.16 76.4096 190.946 78.8608Z" fill="#F2E3E3"/>
<path d="M249.946 -4.13923C249.731 -1.69763 248.72 0.427172 247.344 2.39837C244.928 5.84477 242.045 8.82397 238.48 11.0992C237.261 11.8768 235.974 12.5136 234.509 12.6992C233.373 12.84 232.33 12.5104 231.309 12.0592C229.547 11.2366 227.917 10.1583 226.47 8.85917C223.963 6.71929 221.791 4.21576 220.026 1.43197C218.728 -0.534332 218.025 -2.83305 218 -5.18883C218 -8.04003 218.806 -10.5808 220.915 -12.5776C223.398 -14.9296 226.928 -15.3744 230.07 -13.8192C231.476 -13.1157 232.708 -12.1104 233.68 -10.8752C233.76 -10.7728 233.843 -10.6768 233.926 -10.5776C233.95 -10.5629 233.976 -10.5521 234.003 -10.5456C234.365 -10.952 234.71 -11.3776 235.094 -11.7648C236.446 -13.2026 238.214 -14.1807 240.15 -14.5616C241.726 -14.889 243.364 -14.7216 244.841 -14.0823C246.317 -13.4431 247.561 -12.3632 248.4 -10.9904C249.747 -8.89763 250.16 -6.59043 249.946 -4.13923Z" fill="#F2E3E3"/>
<path d="M52.9099 20.5418C52.5548 24.6315 50.88 28.1905 48.601 31.4923C44.5995 37.265 39.8242 42.2552 33.92 46.0661C31.9007 47.3686 29.7701 48.4352 27.3427 48.7461C25.4612 48.982 23.7334 48.4299 22.0427 47.6741C19.1251 46.2963 16.4247 44.4902 14.0291 42.3141C9.8765 38.7298 6.27847 34.5364 3.3549 29.8736C1.20564 26.58 0.0408309 22.7296 0 18.7837C0 14.008 1.3356 9.75211 4.8283 6.40747C8.9411 2.46787 14.787 1.72283 19.9916 4.32779C22.3192 5.50614 24.3607 7.19 25.97 9.25899C26.1025 9.43051 26.2403 9.59131 26.3781 9.75747C26.4174 9.78215 26.4603 9.80025 26.5053 9.81107C27.1042 9.13035 27.6766 8.41747 28.3126 7.76891C30.5512 5.36059 33.4797 3.72227 36.6866 3.08427C39.296 2.53596 42.0091 2.81635 44.4549 3.8871C46.9007 4.95784 48.9596 6.76664 50.35 9.06603C52.5813 12.5715 53.265 16.436 52.9099 20.5418Z" fill="#FF7575"/>
<path d="M203.946 28.8608C203.731 31.3024 202.72 33.4272 201.344 35.3984C198.928 38.8448 196.045 41.824 192.48 44.0992C191.261 44.8768 189.974 45.5136 188.509 45.6992C187.373 45.84 186.33 45.5104 185.309 45.0592C183.547 44.2366 181.917 43.1583 180.47 41.8592C177.963 39.7193 175.791 37.2158 174.026 34.432C172.728 32.4657 172.025 30.1669 172 27.8112C172 24.96 172.806 22.4192 174.915 20.4224C177.398 18.0704 180.928 17.6256 184.07 19.1808C185.476 19.8843 186.708 20.8896 187.68 22.1248C187.76 22.2272 187.843 22.3232 187.926 22.4224C187.95 22.4371 187.976 22.4479 188.003 22.4544C188.365 22.048 188.71 21.6224 189.094 21.2352C190.446 19.7974 192.214 18.8193 194.15 18.4384C195.726 18.111 197.364 18.2784 198.841 18.9177C200.317 19.5569 201.561 20.6368 202.4 22.0096C203.747 24.1024 204.16 26.4096 203.946 28.8608Z" fill="#F2E3E3"/>
<path d="M163.91 7.54185C163.555 11.6315 161.88 15.1906 159.601 18.4923C155.6 24.2651 150.824 29.2552 144.92 33.0662C142.901 34.3686 140.77 35.4353 138.343 35.7462C136.461 35.982 134.733 35.4299 133.043 34.6742C130.125 33.2964 127.425 31.4902 125.029 29.3142C120.876 25.7299 117.278 21.5365 114.355 16.8736C112.206 13.5801 111.041 9.72969 111 5.78377C111 1.00801 112.336 -3.24783 115.828 -6.59247C119.941 -10.5321 125.787 -11.2771 130.992 -8.67215C133.319 -7.4938 135.361 -5.80994 136.97 -3.74095C137.103 -3.56943 137.24 -3.40863 137.378 -3.24247C137.417 -3.21779 137.46 -3.19969 137.505 -3.18887C138.104 -3.86959 138.677 -4.58247 139.313 -5.23103C141.551 -7.63935 144.48 -9.27766 147.687 -9.91567C150.296 -10.464 153.009 -10.1836 155.455 -9.11284C157.901 -8.0421 159.96 -6.2333 161.35 -3.93391C163.581 -0.428468 164.265 3.43609 163.91 7.54185Z" fill="#FF7575"/>
<path d="M266.91 98.5419C266.555 102.632 264.88 106.191 262.601 109.492C258.6 115.265 253.824 120.255 247.92 124.066C245.901 125.369 243.77 126.435 241.343 126.746C239.461 126.982 237.733 126.43 236.043 125.674C233.125 124.296 230.425 122.49 228.029 120.314C223.876 116.73 220.278 112.536 217.355 107.874C215.206 104.58 214.041 100.73 214 96.7838C214 92.008 215.336 87.7522 218.828 84.4075C222.941 80.4679 228.787 79.7229 233.992 82.3279C236.319 83.5062 238.361 85.1901 239.97 87.2591C240.103 87.4306 240.24 87.5914 240.378 87.7575C240.417 87.7822 240.46 87.8003 240.505 87.8111C241.104 87.1304 241.677 86.4175 242.313 85.769C244.551 83.3606 247.48 81.7223 250.687 81.0843C253.296 80.536 256.009 80.8164 258.455 81.8872C260.901 82.9579 262.96 84.7667 264.35 87.0661C266.581 90.5715 267.265 94.4361 266.91 98.5419Z" fill="#FF7575"/>
</svg>
