<svg width="25" height="32" viewBox="0 0 25 32" fill="none" xmlns="http://www.w3.org/2000/svg">
<path d="M24.9575 10.2887C24.79 12.2419 24 13.9418 22.925 15.5187C21.0375 18.2759 18.785 20.6592 16 22.4794C15.0475 23.1014 14.0425 23.6109 12.8975 23.7594C12.01 23.872 11.195 23.6083 10.3975 23.2474C9.02125 22.5893 7.7475 21.7267 6.6175 20.6874C4.65872 18.9755 2.96154 16.9726 1.5825 14.7456C0.568699 13.1726 0.0192598 11.3336 0 9.44897C0 7.16801 0.63 5.13537 2.2775 3.53793C4.2175 1.65633 6.975 1.30049 9.43 2.54465C10.5279 3.10745 11.4909 3.91168 12.25 4.89985C12.3125 4.98177 12.3775 5.05857 12.4425 5.13793C12.461 5.14972 12.4813 5.15836 12.5025 5.16353C12.785 4.83841 13.055 4.49793 13.355 4.18817C14.4109 3.03793 15.7923 2.25545 17.305 1.95073C18.5358 1.68885 19.8156 1.82277 20.9693 2.33417C22.123 2.84557 23.0941 3.70948 23.75 4.80769C24.8025 6.48193 25.125 8.32769 24.9575 10.2887Z" fill="#DB4949"/>
<path d="M11.3305 12.4938C12.5551 12.4938 13.5479 11.4879 13.5479 10.2469C13.5479 9.00598 12.5551 8 11.3305 8C10.1059 8 9.11316 9.00598 9.11316 10.2469C9.11316 11.4879 10.1059 12.4938 11.3305 12.4938Z" fill="white"/>
<path d="M6.58686 16.9612C6.52526 17.3124 6.83327 17.6296 7.21521 17.6296H15.4454C15.8397 17.6296 16.1354 17.3124 16.0738 16.9612C15.7165 14.9333 13.7328 13.7778 11.3303 13.7778C8.92778 13.7778 6.94416 14.9333 6.58686 16.9612Z" fill="white"/>
<path d="M14.9854 12.7438C16.3512 12.7438 17.4528 11.6228 17.4528 10.2469C17.4528 8.87104 16.3512 7.75 14.9854 7.75C13.6196 7.75 12.5181 8.87104 12.5181 10.2469C12.5181 11.6228 13.6196 12.7438 14.9854 12.7438Z" fill="white" stroke="#DB4949" stroke-width="0.5"/>
<path d="M9.99568 16.9178L9.99565 16.918C9.90187 17.4526 10.3655 17.8796 10.8702 17.8796H19.1004C19.6211 17.8796 20.0682 17.4494 19.975 16.918L19.975 16.9178C19.5879 14.7209 17.4507 13.5278 14.9853 13.5278C12.5199 13.5278 10.3828 14.7209 9.99568 16.9178Z" fill="white" stroke="#DB4949" stroke-width="0.5"/>
</svg>
