<svg width="256" height="258" viewBox="0 0 256 258" fill="none" xmlns="http://www.w3.org/2000/svg">
<path d="M146.759 137.231C145.807 148.096 141.32 157.551 135.214 166.323C124.493 181.659 111.699 194.917 95.88 205.041C90.4698 208.502 84.7614 211.336 78.2578 212.161C73.2168 212.788 68.5876 211.321 64.0578 209.313C56.2407 205.653 49.0058 200.855 42.5874 195.073C31.4616 185.551 21.8216 174.41 13.9886 162.022C8.23021 153.272 5.1094 143.043 5 132.56C5 119.872 8.5784 108.565 17.9362 99.6797C28.9554 89.2133 44.618 87.2339 58.5624 94.1546C64.7986 97.2851 70.2682 101.759 74.58 107.255C74.935 107.711 75.3042 108.138 75.6734 108.58C75.7786 108.645 75.8937 108.693 76.0142 108.722C77.6188 106.914 79.1524 105.02 80.8564 103.297C86.8541 96.8984 94.7004 92.5459 103.292 90.8509C110.284 89.3942 117.553 90.1391 124.106 92.9838C130.658 95.8284 136.175 100.634 139.9 106.743C145.878 116.056 147.71 126.323 146.759 137.231Z" fill="#DB4949"/>
<path d="M83.9456 62.8608C83.7312 65.3024 82.72 67.4272 81.344 69.3984C78.928 72.8448 76.0448 75.824 72.48 78.0992C71.2608 78.8768 69.9744 79.5136 68.5088 79.6992C67.3728 79.84 66.3296 79.5104 65.3088 79.0592C63.5472 78.2366 61.9168 77.1583 60.4704 75.8592C57.9632 73.7193 55.7908 71.2158 54.0256 68.432C52.7279 66.4657 52.0247 64.167 52 61.8112C52 58.96 52.8064 56.4192 54.9152 54.4224C57.3984 52.0704 60.928 51.6256 64.0704 53.1808C65.4758 53.8843 66.7083 54.8896 67.68 56.1248C67.76 56.2272 67.8432 56.3232 67.9264 56.4224C67.9501 56.4371 67.976 56.4479 68.0032 56.4544C68.3648 56.048 68.7104 55.6224 69.0944 55.2352C70.446 53.7974 72.2142 52.8193 74.1504 52.4384C75.7259 52.1111 77.364 52.2785 78.8407 52.9177C80.3174 53.557 81.5605 54.6368 82.4 56.0096C83.7472 58.1024 84.16 60.4096 83.9456 62.8608Z" fill="white"/>
<path d="M198.946 125.861C198.731 128.302 197.72 130.427 196.344 132.398C193.928 135.845 191.045 138.824 187.48 141.099C186.261 141.877 184.974 142.514 183.509 142.699C182.373 142.84 181.33 142.51 180.309 142.059C178.547 141.237 176.917 140.158 175.47 138.859C172.963 136.719 170.791 134.216 169.026 131.432C167.728 129.466 167.025 127.167 167 124.811C167 121.96 167.806 119.419 169.915 117.422C172.398 115.07 175.928 114.626 179.07 116.181C180.476 116.884 181.708 117.89 182.68 119.125C182.76 119.227 182.843 119.323 182.926 119.422C182.95 119.437 182.976 119.448 183.003 119.454C183.365 119.048 183.71 118.622 184.094 118.235C185.446 116.797 187.214 115.819 189.15 115.438C190.726 115.111 192.364 115.278 193.841 115.918C195.317 116.557 196.561 117.637 197.4 119.01C198.747 121.102 199.16 123.41 198.946 125.861Z" fill="white"/>
<path d="M244.946 37.8608C244.731 40.3024 243.72 42.4272 242.344 44.3984C239.928 47.8448 237.045 50.824 233.48 53.0992C232.261 53.8768 230.974 54.5136 229.509 54.6992C228.373 54.84 227.33 54.5104 226.309 54.0592C224.547 53.2366 222.917 52.1583 221.47 50.8592C218.963 48.7193 216.791 46.2158 215.026 43.432C213.728 41.4657 213.025 39.167 213 36.8112C213 33.96 213.806 31.4192 215.915 29.4224C218.398 27.0704 221.928 26.6256 225.07 28.1808C226.476 28.8843 227.708 29.8896 228.68 31.1248C228.76 31.2272 228.843 31.3232 228.926 31.4224C228.95 31.4371 228.976 31.4479 229.003 31.4544C229.365 31.048 229.71 30.6224 230.094 30.2352C231.446 28.7974 233.214 27.8193 235.15 27.4384C236.726 27.111 238.364 27.2784 239.841 27.9177C241.317 28.5569 242.561 29.6368 243.4 31.0096C244.747 33.1024 245.16 35.4096 244.946 37.8608Z" fill="white"/>
<path d="M77.9456 19.8608C77.7312 22.3024 76.72 24.4272 75.344 26.3984C72.928 29.8448 70.0448 32.824 66.48 35.0992C65.2608 35.8768 63.9744 36.5136 62.5088 36.6992C61.3728 36.84 60.3296 36.5104 59.3088 36.0592C57.5472 35.2366 55.9168 34.1583 54.4704 32.8592C51.9632 30.7193 49.7908 28.2158 48.0256 25.432C46.7279 23.4657 46.0247 21.167 46 18.8112C46 15.96 46.8064 13.4192 48.9152 11.4224C51.3984 9.07039 54.928 8.62559 58.0704 10.1808C59.4758 10.8843 60.7083 11.8896 61.68 13.1248C61.76 13.2272 61.8432 13.3232 61.9264 13.4224C61.9501 13.4371 61.976 13.4479 62.0032 13.4544C62.3648 13.048 62.7104 12.6224 63.0944 12.2352C64.446 10.7974 66.2142 9.81929 68.1504 9.43839C69.7259 9.11104 71.364 9.27844 72.8407 9.91769C74.3174 10.5569 75.5605 11.6368 76.4 13.0096C77.7472 15.1024 78.16 17.4096 77.9456 19.8608Z" fill="white"/>
<path d="M192.946 82.8608C192.731 85.3024 191.72 87.4272 190.344 89.3984C187.928 92.8448 185.045 95.824 181.48 98.0992C180.261 98.8768 178.974 99.5136 177.509 99.6992C176.373 99.84 175.33 99.5104 174.309 99.0592C172.547 98.2366 170.917 97.1583 169.47 95.8592C166.963 93.7193 164.791 91.2158 163.026 88.432C161.728 86.4657 161.025 84.167 161 81.8112C161 78.96 161.806 76.4192 163.915 74.4224C166.398 72.0704 169.928 71.6256 173.07 73.1808C174.476 73.8843 175.708 74.8896 176.68 76.1248C176.76 76.2272 176.843 76.3232 176.926 76.4224C176.95 76.4371 176.976 76.4479 177.003 76.4544C177.365 76.048 177.71 75.6224 178.094 75.2352C179.446 73.7974 181.214 72.8193 183.15 72.4384C184.726 72.1111 186.364 72.2785 187.841 72.9177C189.317 73.557 190.561 74.6368 191.4 76.0096C192.747 78.1024 193.16 80.4096 192.946 82.8608Z" fill="white"/>
<path d="M238.946 -5.13921C238.731 -2.69761 237.72 -0.572805 236.344 1.39839C233.928 4.84479 231.045 7.82399 227.48 10.0992C226.261 10.8768 224.974 11.5136 223.509 11.6992C222.373 11.84 221.33 11.5104 220.309 11.0592C218.547 10.2366 216.917 9.15833 215.47 7.85919C212.963 5.71931 210.791 3.21578 209.026 0.431993C207.728 -1.53431 207.025 -3.83303 207 -6.18881C207 -9.04001 207.806 -11.5808 209.915 -13.5776C212.398 -15.9296 215.928 -16.3744 219.07 -14.8192C220.476 -14.1157 221.708 -13.1104 222.68 -11.8752C222.76 -11.7728 222.843 -11.6768 222.926 -11.5776C222.95 -11.5629 222.976 -11.5521 223.003 -11.5456C223.365 -11.952 223.71 -12.3776 224.094 -12.7648C225.446 -14.2026 227.214 -15.1807 229.15 -15.5616C230.726 -15.889 232.364 -15.7216 233.841 -15.0823C235.317 -14.4431 236.561 -13.3632 237.4 -11.9904C238.747 -9.89761 239.16 -7.59041 238.946 -5.13921Z" fill="white"/>
<path d="M35.9456 2.86079C35.7312 5.30239 34.72 7.42719 33.344 9.39839C30.928 12.8448 28.0448 15.824 24.48 18.0992C23.2608 18.8768 21.9744 19.5136 20.5088 19.6992C19.3728 19.84 18.3296 19.5104 17.3088 19.0592C15.5472 18.2366 13.9168 17.1583 12.4704 15.8592C9.96317 13.7193 7.79078 11.2158 6.0256 8.43199C4.72793 6.46569 4.02465 4.16697 4 1.81119C4 -1.04001 4.8064 -3.58081 6.9152 -5.57761C9.3984 -7.92961 12.928 -8.37441 16.0704 -6.81921C17.4758 -6.11571 18.7083 -5.11042 19.68 -3.87521C19.76 -3.77281 19.8432 -3.67681 19.9264 -3.57761C19.9501 -3.56287 19.976 -3.55207 20.0032 -3.54561C20.3648 -3.95201 20.7104 -4.37761 21.0944 -4.76481C22.446 -6.20261 24.2142 -7.18071 26.1504 -7.56161C27.7259 -7.88896 29.364 -7.72156 30.8407 -7.08231C32.3174 -6.44306 33.5605 -5.36318 34.4 -3.99041C35.7472 -1.89761 36.16 0.409595 35.9456 2.86079Z" fill="white"/>
<path d="M31.9456 52.8608C31.7312 55.3024 30.72 57.4272 29.344 59.3984C26.928 62.8448 24.0448 65.824 20.48 68.0992C19.2608 68.8768 17.9744 69.5136 16.5088 69.6992C15.3728 69.84 14.3296 69.5104 13.3088 69.0592C11.5472 68.2366 9.9168 67.1583 8.4704 65.8592C5.96317 63.7193 3.79078 61.2158 2.0256 58.432C0.727935 56.4657 0.0246526 54.167 0 51.8112C0 48.96 0.8064 46.4192 2.9152 44.4224C5.3984 42.0704 8.928 41.6256 12.0704 43.1808C13.4758 43.8843 14.7083 44.8896 15.68 46.1248C15.76 46.2272 15.8432 46.3232 15.9264 46.4224C15.9501 46.4371 15.976 46.4479 16.0032 46.4544C16.3648 46.048 16.7104 45.6224 17.0944 45.2352C18.446 43.7974 20.2142 42.8193 22.1504 42.4384C23.7259 42.111 25.364 42.2784 26.8407 42.9177C28.3174 43.5569 29.5605 44.6368 30.4 46.0096C31.7472 48.1024 32.16 50.4096 31.9456 52.8608Z" fill="white"/>
<path d="M192.946 27.8608C192.731 30.3024 191.72 32.4272 190.344 34.3984C187.928 37.8448 185.045 40.824 181.48 43.0992C180.261 43.8768 178.974 44.5136 177.509 44.6992C176.373 44.84 175.33 44.5104 174.309 44.0592C172.547 43.2366 170.917 42.1583 169.47 40.8592C166.963 38.7193 164.791 36.2158 163.026 33.432C161.728 31.4657 161.025 29.167 161 26.8112C161 23.96 161.806 21.4192 163.915 19.4224C166.398 17.0704 169.928 16.6256 173.07 18.1808C174.476 18.8843 175.708 19.8896 176.68 21.1248C176.76 21.2272 176.843 21.3232 176.926 21.4224C176.95 21.4371 176.976 21.4479 177.003 21.4544C177.365 21.048 177.71 20.6224 178.094 20.2352C179.446 18.7974 181.214 17.8193 183.15 17.4384C184.726 17.111 186.364 17.2784 187.841 17.9177C189.317 18.5569 190.561 19.6368 191.4 21.0096C192.747 23.1024 193.16 25.4096 192.946 27.8608Z" fill="white"/>
<path d="M152.91 6.54184C152.555 10.6315 150.88 14.1906 148.601 17.4923C144.6 23.265 139.824 28.2552 133.92 32.0662C131.901 33.3686 129.77 34.4353 127.343 34.7462C125.461 34.982 123.733 34.4299 122.043 33.6742C119.125 32.2964 116.425 30.4902 114.029 28.3142C109.876 24.7299 106.278 20.5364 103.355 15.8736C101.206 12.58 100.041 8.72968 100 4.78376C100 0.00799656 101.336 -4.24784 104.828 -7.59248C108.941 -11.5321 114.787 -12.2771 119.992 -9.67216C122.319 -8.49381 124.361 -6.80995 125.97 -4.74096C126.103 -4.56944 126.24 -4.40864 126.378 -4.24248C126.417 -4.21781 126.46 -4.19971 126.505 -4.18888C127.104 -4.8696 127.677 -5.58248 128.313 -6.23104C130.551 -8.63937 133.48 -10.2777 136.687 -10.9157C139.296 -11.464 142.009 -11.1836 144.455 -10.1129C146.901 -9.04211 148.96 -7.23332 150.35 -4.93392C152.581 -1.42848 153.265 2.43608 152.91 6.54184Z" fill="white"/>
<path d="M255.91 97.5418C255.555 101.632 253.88 105.191 251.601 108.492C247.6 114.265 242.824 119.255 236.92 123.066C234.901 124.369 232.77 125.435 230.343 125.746C228.461 125.982 226.733 125.43 225.043 124.674C222.125 123.296 219.425 121.49 217.029 119.314C212.876 115.73 209.278 111.536 206.355 106.874C204.206 103.58 203.041 99.7297 203 95.7838C203 91.008 204.336 86.7522 207.828 83.4075C211.941 79.4679 217.787 78.7229 222.992 81.3278C225.319 82.5062 227.361 84.19 228.97 86.259C229.103 86.4306 229.24 86.5914 229.378 86.7575C229.417 86.7822 229.46 86.8003 229.505 86.8111C230.104 86.1304 230.677 85.4175 231.313 84.769C233.551 82.3606 236.48 80.7223 239.687 80.0843C242.296 79.536 245.009 79.8164 247.455 80.8871C249.901 81.9579 251.96 83.7667 253.35 86.0661C255.581 89.5715 256.265 93.4361 255.91 97.5418Z" fill="white"/>
</svg>
