<svg width="30" height="30" viewBox="0 0 30 30" fill="none" xmlns="http://www.w3.org/2000/svg">
<circle cx="15" cy="15" r="15" fill="black"/>
<path d="M13.336 18.608C13.272 18.0107 13.2987 17.5093 13.416 17.104C13.5333 16.6987 13.6933 16.3573 13.896 16.08C14.1093 15.8027 14.344 15.5733 14.6 15.392C14.856 15.2 15.096 15.0187 15.32 14.848C15.5547 14.6773 15.7467 14.5013 15.896 14.32C16.056 14.128 16.136 13.8987 16.136 13.632C16.136 13.2587 16.024 12.9707 15.8 12.768C15.5867 12.5547 15.192 12.448 14.616 12.448C14.4347 12.448 14.232 12.4693 14.008 12.512C13.7947 12.5547 13.5813 12.6133 13.368 12.688C13.1547 12.7627 12.9467 12.848 12.744 12.944C12.552 13.04 12.3867 13.1413 12.248 13.248L11.384 11.584C11.8213 11.296 12.3227 11.056 12.888 10.864C13.464 10.672 14.1627 10.576 14.984 10.576C16.0613 10.576 16.9093 10.8213 17.528 11.312C18.1573 11.8027 18.472 12.464 18.472 13.296C18.472 13.872 18.392 14.3413 18.232 14.704C18.0827 15.056 17.8853 15.3547 17.64 15.6C17.4053 15.8347 17.1493 16.0427 16.872 16.224C16.6053 16.3947 16.3493 16.5813 16.104 16.784C15.8693 16.976 15.672 17.216 15.512 17.504C15.3627 17.7813 15.288 18.1493 15.288 18.608H13.336ZM13 20.912C13 20.5173 13.128 20.208 13.384 19.984C13.64 19.76 13.976 19.648 14.392 19.648C14.8187 19.648 15.16 19.76 15.416 19.984C15.672 20.208 15.8 20.5173 15.8 20.912C15.8 21.2853 15.672 21.5893 15.416 21.824C15.16 22.0587 14.8187 22.176 14.392 22.176C13.976 22.176 13.64 22.0587 13.384 21.824C13.128 21.5893 13 21.2853 13 20.912Z" fill="white"/>
</svg>
