<svg width="21" height="17" viewBox="0 0 21 17" fill="none" xmlns="http://www.w3.org/2000/svg">
<rect y="0.158813" width="20.5765" height="15.9" rx="3" fill="#DB4949"/>
<path d="M15.9866 7.69983C15.933 8.32215 15.6802 8.86372 15.3362 9.36614C14.7322 10.2446 14.0114 11.0039 13.1201 11.5838C12.8153 11.782 12.4937 11.9443 12.1273 11.9916C11.8433 12.0275 11.5825 11.9435 11.3273 11.8285C10.8869 11.6188 10.4793 11.344 10.1177 11.0129C9.49083 10.4675 8.94772 9.82936 8.50641 9.11982C8.18199 8.61865 8.00616 8.03275 8 7.43231C8 6.70559 8.20161 6.05799 8.72882 5.54904C9.34964 4.94956 10.2321 4.83619 11.0177 5.23258C11.369 5.41189 11.6772 5.66812 11.9201 5.98295C11.9401 6.00905 11.9609 6.03352 11.9817 6.05881C11.9876 6.06256 11.9941 6.06532 12.0009 6.06696C12.0913 5.96338 12.1777 5.8549 12.2737 5.75621C12.6116 5.38974 13.0537 5.14044 13.5378 5.04336C13.9316 4.95993 14.3412 5.00259 14.7104 5.16553C15.0795 5.32846 15.3903 5.6037 15.6002 5.95359C15.937 6.48701 16.0402 7.07507 15.9866 7.69983Z" fill="white" fill-opacity="0.7"/>
<path d="M11.1361 7.71265L11.1361 7.7127C11.0795 8.3693 10.8129 8.93549 10.46 9.45088L10.4598 9.45113C9.84702 10.3423 9.11281 11.1169 8.20195 11.7095L8.20191 11.7096C7.88921 11.9129 7.54535 12.0889 7.14652 12.1404L7.14612 12.1404C6.82056 12.1816 6.52876 12.0838 6.26567 11.9653L6.2628 11.964L6.26282 11.9639C5.80947 11.7481 5.38994 11.4653 5.01776 11.1248C4.38054 10.5701 3.82844 9.92134 3.37975 9.20019C3.04027 8.67529 2.85646 8.06206 2.85001 7.43385L2.84999 7.43231C2.85 6.67621 3.06089 5.98535 3.62462 5.44114L11.1361 7.71265ZM11.1361 7.71265C11.1918 7.06289 11.0849 6.44109 10.7279 5.87495C10.5023 5.4995 10.1683 5.20366 9.77092 5.0283C9.37326 4.8528 8.93196 4.8067 8.50746 4.89645C7.99298 4.99981 7.52358 5.26456 7.16479 5.65307C7.10712 5.71246 7.05117 5.777 6.99793 5.83951C6.74822 5.53089 6.43765 5.2785 6.08587 5.09898L6.08525 5.09867M11.1361 7.71265L6.08525 5.09867M6.08525 5.09867C5.24613 4.67528 4.29407 4.79471 3.62464 5.44113L6.08525 5.09867Z" fill="white" stroke="#DB4949" stroke-width="0.3"/>
</svg>
