<svg width="30" height="30" viewBox="0 0 30 30" fill="none" xmlns="http://www.w3.org/2000/svg">
<circle cx="15" cy="15" r="15" fill="black"/>
<path fill-rule="evenodd" clip-rule="evenodd" d="M15.7806 7.97087C15.5406 6.67638 13.6858 6.67638 13.4458 7.97087C13.2742 8.89685 12.1444 9.26395 11.4612 8.6157C10.5062 7.70949 9.00562 8.79973 9.57236 9.98804C9.97777 10.8381 9.27951 11.7991 8.3458 11.6763C7.04052 11.5045 6.46735 13.2685 7.62432 13.8967C8.45194 14.3461 8.45194 15.5341 7.62432 15.9835C6.46735 16.6117 7.04052 18.3758 8.3458 18.204C9.27951 18.0811 9.97777 19.0422 9.57236 19.8922C9.00562 21.0805 10.5062 22.1707 11.4612 21.2645C12.1444 20.6163 13.2742 20.9834 13.4458 21.9094C13.6858 23.2039 15.5406 23.2039 15.7806 21.9094C15.9523 20.9834 17.0821 20.6163 17.7652 21.2645C18.7202 22.1707 20.2208 21.0805 19.6541 19.8922C19.2487 19.0422 19.9469 18.0811 20.8806 18.204C22.1859 18.3758 22.7591 16.6117 21.6021 15.9835C20.7745 15.5341 20.7745 14.3461 21.6021 13.8967C22.7591 13.2685 22.1859 11.5045 20.8806 11.6763C19.9469 11.7991 19.2487 10.8381 19.6541 9.98804C20.2208 8.79973 18.7202 7.70949 17.7652 8.6157C17.0821 9.26395 15.9523 8.89685 15.7806 7.97087ZM14.4473 16.5984C15.4548 16.5984 16.2715 15.7817 16.2715 14.7743C16.2715 13.7668 15.4548 12.9501 14.4473 12.9501C13.4399 12.9501 12.6232 13.7668 12.6232 14.7743C12.6232 15.7817 13.4399 16.5984 14.4473 16.5984Z" fill="white"/>
</svg>
