<svg width="26" height="26" viewBox="0 0 26 26" fill="none" xmlns="http://www.w3.org/2000/svg">
<path d="M12.8638 1.32469C12.8814 1.28648 12.9014 1.2691 12.9183 1.25883C12.9385 1.2465 12.9668 1.23751 13 1.23751C13.0332 1.23751 13.0615 1.2465 13.0817 1.25883C13.0986 1.2691 13.1186 1.28648 13.1362 1.32468L16.2258 8.0228C16.4952 8.60705 17.0489 9.00932 17.6878 9.08507L25.0128 9.95357C25.0546 9.95852 25.0773 9.97215 25.0923 9.98502C25.1103 10.0005 25.1276 10.0246 25.1378 10.0562C25.1481 10.0877 25.1483 10.1174 25.1428 10.1405C25.1383 10.1597 25.1279 10.1841 25.097 10.2127L19.6815 15.2208C19.2091 15.6577 18.9976 16.3085 19.123 16.9396L20.5606 24.1745C20.5688 24.2157 20.5628 24.2416 20.5552 24.2598C20.5461 24.2817 20.5284 24.3056 20.5016 24.3251C20.4748 24.3446 20.4466 24.3539 20.4229 24.3559C20.4033 24.3575 20.3769 24.3552 20.3402 24.3346L13.9036 20.7317L13.4884 21.4734L13.9036 20.7317C13.3422 20.4174 12.6578 20.4174 12.0964 20.7317L5.65983 24.3346C5.62312 24.3552 5.59674 24.3575 5.57706 24.3559C5.55342 24.3539 5.52523 24.3446 5.4984 24.3251C5.47156 24.3056 5.45393 24.2817 5.44479 24.2598C5.43718 24.2416 5.43124 24.2157 5.43944 24.1745L6.877 16.9396C7.0024 16.3085 6.79091 15.6577 6.31854 15.2208L0.902969 10.2127C0.872081 10.1841 0.861719 10.1597 0.857165 10.1405C0.851696 10.1174 0.851902 10.0877 0.862153 10.0562C0.872403 10.0246 0.889698 10.0005 0.907685 9.98502C0.922664 9.97215 0.945371 9.95852 0.987149 9.95357L8.31216 9.08507C8.95108 9.00932 9.50476 8.60705 9.77425 8.02281L12.8638 1.32469Z" stroke="black" stroke-width="1.7"/>
</svg>
