<svg width="21" height="16" viewBox="0 0 21 16" fill="none" xmlns="http://www.w3.org/2000/svg">
<rect width="20.5765" height="15.9" rx="4" fill="#2ECC71"/>
<path d="M13.9866 7.69983C13.933 8.32215 13.6802 8.86372 13.3362 9.36614C12.7322 10.2446 12.0114 11.0039 11.1201 11.5838C10.8153 11.782 10.4937 11.9443 10.1273 11.9916C9.84331 12.0275 9.5825 11.9435 9.32729 11.8285C8.88688 11.6188 8.47927 11.344 8.11766 11.0129C7.49083 10.4675 6.94772 9.82936 6.50641 9.11982C6.18199 8.61865 6.00616 8.03275 6 7.43231C6 6.70559 6.20161 6.05799 6.72882 5.54904C7.34964 4.94956 8.23206 4.83619 9.01768 5.23258C9.36903 5.41189 9.67718 5.66812 9.92011 5.98295C9.94011 6.00905 9.96091 6.03352 9.98171 6.05881C9.98764 6.06256 9.99412 6.06532 10.0009 6.06696C10.0913 5.96338 10.1777 5.8549 10.2737 5.75621C10.6116 5.38974 11.0537 5.14044 11.5378 5.04336C11.9316 4.95993 12.3412 5.00259 12.7104 5.16553C13.0795 5.32846 13.3903 5.6037 13.6002 5.95359C13.937 6.48701 14.0402 7.07507 13.9866 7.69983Z" fill="white"/>
</svg>
