<svg width="147" height="184" viewBox="0 0 147 184" fill="none" xmlns="http://www.w3.org/2000/svg">
<path d="M7.5 16H52V31.5H70.5V92.5H7.5V16Z" fill="#6EEED5"/>
<path d="M5.31592 13.4541V94.5246H45.3497V113.733C45.3497 117.096 48.0878 119.843 51.4463 119.843H117.598L125.085 133.746L132.622 119.838H135.587C138.946 119.838 141.684 117.092 141.684 113.729V66.0262C141.684 65.3769 141.148 64.8559 140.5 64.8762V64.8807C140.307 64.8807 140.118 64.939 139.952 65.0379L135.731 67.5266V64.5617L141.119 61.3857C141.468 61.1787 141.683 60.8036 141.684 60.3975V59.207C141.684 55.8945 139.024 53.1923 135.735 53.1111L135.744 35.8072L135.753 24.3746C135.753 23.7395 135.239 23.2247 134.605 23.2246L115.705 23.2516C115.071 23.2516 114.557 23.7665 114.557 24.4016L114.548 39.1404V53.0977H110.326V41.8178C110.326 39.6756 108.572 37.9141 106.432 37.9141H80.6014C78.4621 37.9141 76.7075 39.6756 76.7075 41.8178V53.0977H72.5803V29.4283L55.0307 13.4541H54.5866H5.31592ZM7.61279 15.7541H52.6755V31.7957H70.2834V92.2246H7.61279V15.7541ZM54.9724 16.5088L69.2426 29.4957H54.9724V16.5088ZM133.456 25.5246L133.447 35.8072L116.844 35.8252L116.853 25.5516L133.456 25.5246ZM12.0899 26.6881V28.9881H46.6058V26.6881H12.0899ZM38.9481 35.8611C38.6435 35.8612 38.3514 35.9823 38.1361 36.198C37.9207 36.4137 37.7997 36.7061 37.7997 37.0111V49.0727L31.7345 59.49C31.5811 59.7534 31.5385 60.0669 31.6159 60.3617C31.6933 60.6565 31.8844 60.9085 32.1472 61.0623C34.1423 62.2312 36.4716 62.9041 38.9481 62.9041C46.3799 62.9041 52.4287 56.8355 52.4288 49.3826C52.4288 41.9297 46.3799 35.8611 38.9481 35.8611ZM34.8299 36.5664V36.5709C34.6878 36.5673 34.5464 36.5902 34.4127 36.6383C29.1954 38.5082 25.4719 43.5182 25.4719 49.3781C25.4719 52.7481 26.7034 55.8412 28.7422 58.2098C28.8396 58.3275 28.9595 58.4247 29.0948 58.4955C29.2301 58.5664 29.3781 58.6095 29.5303 58.6223C29.6824 58.6352 29.8356 58.6176 29.9809 58.5704C30.1261 58.5233 30.2605 58.4477 30.3762 58.3479C30.492 58.2482 30.5867 58.1263 30.6548 57.9895C30.7229 57.8527 30.7631 57.7036 30.773 57.5511C30.783 57.3985 30.7624 57.2455 30.7126 57.101C30.6628 56.9564 30.5847 56.8233 30.4828 56.7094C28.7893 54.742 27.7688 52.1871 27.7688 49.3781C27.7687 44.4936 30.8677 40.3521 35.1887 38.8035C35.4442 38.7152 35.6604 38.5394 35.7992 38.3072C35.9381 38.075 35.9907 37.8012 35.9478 37.534C35.905 37.2668 35.7693 37.0232 35.5649 36.8463C35.3604 36.6693 35.1001 36.5702 34.8299 36.5664ZM133.447 38.1072V38.1117V39.0236L133.403 112.192L126.247 112.206L126.297 38.1207L133.447 38.1072ZM124 38.1207L123.95 112.206L116.835 112.219L116.844 38.1342L124 38.1207ZM40.0965 38.3947C45.333 38.9549 49.4787 42.9898 50.0242 48.2326H40.0965V38.4037V38.3947ZM80.6014 40.2141H106.432C107.338 40.2141 108.029 40.91 108.029 41.8178V53.0977H104.297V46.5031C104.297 44.9419 103.003 43.6506 101.444 43.6506H85.5854C84.0264 43.6506 82.7368 44.9419 82.7368 46.5031V53.0977H79.0043V41.8178C79.0043 40.91 79.6952 40.2141 80.6014 40.2141ZM85.5854 45.9506H101.444C101.77 45.9506 102 46.1758 102 46.5031V53.0977H85.0336V46.5031C85.0336 46.1758 85.2593 45.9506 85.5854 45.9506ZM39.6075 50.5326H50.0736C49.502 56.2017 44.7493 60.6041 38.9481 60.6041C37.306 60.6041 35.8585 60.0206 34.4575 59.3867L39.6075 50.5326ZM72.5803 55.3977H114.548L114.543 74.3592L99.1469 83.4289V81.4389C99.1469 79.8544 97.8403 78.5414 96.2578 78.5414H90.7758C89.1934 78.5414 87.8823 79.8544 87.8823 81.4389V83.4334L72.5803 74.4176V55.3977ZM135.735 55.4111C137.788 55.489 139.387 57.1289 139.387 59.207V59.7371L135.731 61.8889L135.735 55.4111ZM12.063 67.9219V70.2219H65.8332V67.9219H12.063ZM139.387 68.0387V113.729C139.387 115.858 137.713 117.538 135.587 117.538H133.865L135.699 114.155L135.726 70.1949L139.387 68.0387ZM12.063 76.5154V78.8154H65.8332V76.5154H12.063ZM114.543 77.032V80.0014L99.1469 89.0666V86.0973L114.543 77.032ZM72.5803 77.0904L87.8823 86.0973V89.0711L72.5803 80.0553V77.0904ZM90.7758 80.8414H96.2578C96.6075 80.8414 96.85 81.0888 96.85 81.4389V94.3764C96.85 94.7267 96.6075 94.9738 96.2578 94.9738H90.7758C90.4261 94.9738 90.1792 94.7267 90.1792 94.3764V81.4389C90.1792 81.0888 90.4261 80.8414 90.7758 80.8414ZM114.543 82.6697L114.539 114.164L116.36 117.543H51.4463C49.3209 117.543 47.6466 115.862 47.6466 113.733V94.5246H72.5803V82.7281L87.8823 91.735V94.3764C87.8823 95.9611 89.1934 97.2738 90.7758 97.2738H96.2578C97.8403 97.2738 99.1469 95.9611 99.1469 94.3764V91.735L114.543 82.6697ZM42.2498 85.109V87.409H65.8332V85.109H42.2498ZM132.905 114.497L125.09 128.917L117.333 114.519L132.905 114.497Z" fill="black" stroke="black"/>
</svg>
