<?xml version="1.0" encoding="utf-8"?>
<!-- Generator: Adobe Illustrator 23.0.2, SVG Export Plug-In . SVG Version: 6.00 Build 0)  -->
<svg version="1.1" id="Layer_1" xmlns="http://www.w3.org/2000/svg" xmlns:xlink="http://www.w3.org/1999/xlink" x="0px" y="0px"
	 viewBox="0 0 147 184" style="enable-background:new 0 0 147 184;" xml:space="preserve">
<style type="text/css">
	.st0{fill:#FFFFFF;}
	.st1{stroke:#000000;}
	.st2{fill:#DD4849;}
	.st3{fill:#2765A8;}
	.st4{fill:#2461AD;}
	.st5{fill:#18B99A;}
</style>
<path class="st0" d="M9.4,17.9h41.2V34h17.8l0.1,56.5h-59L9.4,17.9z"/>
<path class="st1" d="M5.3,13.5v81.1h40v19.2c0,3.4,2.7,6.1,6.1,6.1h66.2l7.5,13.9l7.5-13.9h3c3.4,0,6.1-2.7,6.1-6.1V66
	c0-0.6-0.5-1.2-1.2-1.2l0,0c-0.2,0-0.4,0.1-0.5,0.2l-4.2,2.5v-3l5.4-3.2c0.3-0.2,0.6-0.6,0.6-1v-1.2c0-3.3-2.7-6-5.9-6.1V35.7V24.3
	c0-0.6-0.5-1.1-1.1-1.1h-18.9c-0.6,0-1.1,0.5-1.1,1.1V39v14h-4.2V41.8c0-2.1-1.8-3.9-3.9-3.9H80.6c-2.1,0-3.9,1.8-3.9,3.9v11.3h-4.1
	V29.4L55,13.5h-0.4H5.3z M7.6,15.8h45.1v16h17.6v60.4H7.6V15.8z M55,16.5l14.3,13H55V16.5z M133.5,25.5v10.3h-16.6V25.5H133.5z
	 M12.1,26.7V29h34.5v-2.3H12.1z M38.9,35.9c-0.3,0-0.6,0.1-0.8,0.3s-0.3,0.5-0.3,0.8v12.1l-6.1,10.4c-0.2,0.3-0.2,0.6-0.1,0.9
	c0.1,0.3,0.3,0.5,0.5,0.7c2,1.2,4.3,1.8,6.8,1.8c7.4,0,13.5-6.1,13.5-13.5C52.4,41.9,46.4,35.9,38.9,35.9z M34.8,36.6L34.8,36.6
	c-0.1,0-0.3,0-0.4,0.1c-5.2,1.9-8.9,6.9-8.9,12.7c0,3.4,1.2,6.5,3.3,8.8c0.1,0.1,0.2,0.2,0.4,0.3c0.1,0.1,0.3,0.1,0.4,0.1
	c0.2,0,0.3,0,0.5-0.1c0.1,0,0.3-0.1,0.4-0.2c0.1-0.1,0.2-0.2,0.3-0.4c0.1-0.1,0.1-0.3,0.1-0.4c0-0.2,0-0.3-0.1-0.5
	c0-0.1-0.1-0.3-0.2-0.4c-1.7-2-2.7-4.5-2.7-7.3c0-4.9,3.1-9,7.4-10.6c0.3-0.1,0.5-0.3,0.6-0.5s0.2-0.5,0.1-0.8
	c0-0.3-0.2-0.5-0.4-0.7C35.4,36.7,35.1,36.6,34.8,36.6z M133.4,38.1L133.4,38.1V39v73.2h-7.2V38.1H133.4z M124,38.1l-0.1,74.1h-7.1
	V38.1H124z M40.1,38.4c5.2,0.6,9.4,4.6,9.9,9.8h-9.9V38.4L40.1,38.4z M80.6,40.2h25.8c0.9,0,1.6,0.7,1.6,1.6v11.3h-3.7v-6.6
	c0-1.6-1.3-2.9-2.9-2.9H85.6c-1.6,0-2.8,1.3-2.8,2.9v6.6H79V41.8C79,40.9,79.7,40.2,80.6,40.2z M85.6,46h15.9c0.3,0,0.6,0.2,0.6,0.6
	v6.6H85v-6.6C85,46.2,85.3,46,85.6,46z M39.6,50.5h10.5c-0.6,5.7-5.3,10.1-11.1,10.1c-1.6,0-3.1-0.6-4.5-1.2L39.6,50.5z M72.6,55.4
	h42v19l-15.4,9.1v-2c0-1.6-1.3-2.9-2.9-2.9h-5.5c-1.6,0-2.9,1.3-2.9,2.9v2l-15.3-9C72.6,74.5,72.6,55.4,72.6,55.4z M135.7,55.4
	c2.1,0.1,3.7,1.7,3.7,3.8v0.5l-3.7,2.2V55.4z M12.1,67.9v2.3h53.8v-2.3H12.1z M139.4,68v45.7c0,2.1-1.7,3.8-3.8,3.8h-1.7l1.8-3.4
	v-44L139.4,68z M12.1,76.5v2.3h53.8v-2.3H12.1z M114.5,77v3l-15.4,9.1v-3L114.5,77z M72.6,77.1l15.3,9v3l-15.3-9V77.1z M90.8,80.8
	h5.5c0.3,0,0.6,0.2,0.6,0.6v12.9c0,0.4-0.2,0.6-0.6,0.6h-5.5c-0.3,0-0.6-0.2-0.6-0.6V81.4C90.2,81.1,90.4,80.8,90.8,80.8z
	 M114.5,82.7v31.5l1.8,3.4H51.4c-2.1,0-3.8-1.7-3.8-3.8V94.5h24.9V82.7l15.3,9v2.6c0,1.6,1.3,2.9,2.9,2.9h5.5c1.6,0,2.9-1.3,2.9-2.9
	v-2.6L114.5,82.7z M42.2,85.1v2.3h23.6v-2.3H42.2z M132.9,114.5l-7.8,14.4l-7.8-14.4L132.9,114.5z"/>
<path class="st2" d="M74,57v16.6l12.4,7.2c0,0,0.1-4,4.8-3.9c4.7,0.1,5.2,0.1,5.2,0.1s3.6-0.1,4.1,3.1v0.7l12.4-7.2V57H74z"/>
<path class="st2" d="M49.2,96.4l-0.1,17.7c0,0,0.4,2.1,3,2.1s61.6,0,61.6,0l-1-1.7l0.2-29l-12.2,7.4v1.3c0,0,0.2,4.6-3.9,4.5
	c-3.9,0-6.5,0-6.5,0s-3.9-0.1-3.9-3.3c0-2.4,0-2.7,0-2.7l-12.1-6.8l0.2,10.3L49.2,96.4z"/>
<rect x="118.3" y="40.2" class="st3" width="3.9" height="69.4"/>
<rect x="127.9" y="40.2" class="st3" width="3.9" height="69.4"/>
<rect x="118.7" y="27.4" class="st2" width="12.7" height="6.6"/>
<path class="st2" d="M57.2,22.4"/>
<polygon class="st0" points="57.2,27 62.7,27 57.2,22.4 "/>
<path class="st4" d="M122.2,117.2"/>
<polygon class="st2" points="125.1,123.9 121.7,116.9 128.5,116.9 "/>
<rect x="92.1" y="83" class="st2" width="2.9" height="9.7"/>
<path class="st2" d="M36.2,40L36,48.8l-4.1,6.6C31.9,55.4,24.5,47.1,36.2,40z"/>
<path class="st3" d="M40.4,52.2l-3.6,6.4c0,0,7.4,3.1,11.8-6.5C41.7,52.2,40.4,52.2,40.4,52.2z"/>
<path class="st5" d="M41.7,40.5v5.9h6.1C47.8,46.5,46.1,42.4,41.7,40.5z"/>
</svg>
